<svg width="90" height="90" viewBox="0 0 90 90" fill="none" xmlns="http://www.w3.org/2000/svg">
<path d="M44.5893 54.7278C44.457 54.7236 44.3333 54.7332 44.2767 54.7374C44.2201 54.7415 44.184 54.7455 44.1246 54.7565C44.0653 54.7674 43.935 54.7906 43.8034 54.8329C43.6717 54.8752 43.5561 54.934 43.4479 55.0042C43.3397 55.0744 43.2273 55.1601 43.1419 55.2659C43.0564 55.3716 43.0224 55.4728 42.9965 55.5445C42.9705 55.6161 42.9378 55.699 42.9271 55.8003C42.9164 55.9016 42.9307 55.9969 42.9489 56.0862C42.9672 56.1755 42.9926 56.2708 43.0354 56.3678C43.0782 56.4647 43.1388 56.5659 43.2341 56.6596C43.3293 56.7532 43.4406 56.8232 43.5363 56.8742C43.632 56.9252 43.7221 56.9594 43.8186 56.9904C43.915 57.0214 44.0455 57.0608 44.1997 57.0793C44.3538 57.0979 44.5034 57.0913 44.6397 57.0764C44.776 57.0615 44.9126 57.0359 45.0446 56.9904C45.1766 56.945 45.2888 56.8857 45.382 56.8324C45.4752 56.7791 45.5587 56.7256 45.6319 56.6655C45.7052 56.6055 45.767 56.5401 45.8173 56.4693C45.8675 56.3985 45.9043 56.3261 45.9332 56.2598C45.9621 56.1935 45.9891 56.1147 45.9997 56.0165C46.0104 55.9183 46.0089 55.8067 45.9931 55.71C45.9773 55.6132 45.9393 55.5356 45.9009 55.4711C45.8625 55.4065 45.812 55.3266 45.7488 55.252C45.6856 55.1774 45.6147 55.1172 45.5416 55.0638C45.4686 55.0104 45.3831 54.9549 45.2869 54.9051C45.1908 54.8552 45.0845 54.8118 44.9666 54.7808C44.8488 54.7499 44.7217 54.732 44.5893 54.7278ZM44.5684 55.1277C44.652 55.1302 44.7296 55.1424 44.7994 55.1607C44.8691 55.1791 44.9331 55.2043 44.998 55.2379C45.0629 55.2716 45.1291 55.3145 45.1852 55.3555C45.2414 55.3966 45.2768 55.4272 45.3145 55.4717C45.3522 55.5162 45.3971 55.584 45.4295 55.6385C45.4619 55.6931 45.4699 55.7054 45.4789 55.7606C45.4879 55.8157 45.4907 55.9179 45.4837 55.9826C45.4767 56.0472 45.4643 56.0804 45.4419 56.1318C45.4195 56.1832 45.3924 56.2344 45.363 56.2758C45.3336 56.3173 45.2999 56.3534 45.2546 56.3905C45.2093 56.4277 45.1507 56.4665 45.0741 56.5103C44.9974 56.5542 44.9122 56.5972 44.8336 56.6243C44.755 56.6514 44.6684 56.6683 44.5675 56.6794C44.4666 56.6905 44.3643 56.6933 44.2795 56.6831C44.1947 56.6729 44.0995 56.6464 44.0172 56.6199C43.9349 56.5934 43.8936 56.5781 43.83 56.5442C43.7664 56.5103 43.6899 56.4592 43.6418 56.4119C43.5937 56.3646 43.5556 56.305 43.5258 56.2377C43.4961 56.1704 43.4756 56.0987 43.4603 56.0238C43.4449 55.9488 43.438 55.8826 43.4432 55.8334C43.4484 55.7842 43.4683 55.7274 43.4954 55.6526C43.5225 55.5778 43.5425 55.5259 43.581 55.4784C43.6194 55.4308 43.7011 55.3631 43.7806 55.3115C43.86 55.2599 43.9248 55.2282 44.002 55.2034C44.0791 55.1787 44.186 55.1578 44.2453 55.1468C44.3045 55.1359 44.2684 55.1407 44.3251 55.1366C44.3818 55.1325 44.4848 55.1249 44.5684 55.1277ZM44.1849 54.9517C44.1257 54.9626 44.0071 54.9845 43.9027 55.018C43.7983 55.0516 43.708 55.0967 43.6142 55.1577C43.5204 55.2186 43.4231 55.2952 43.3611 55.3719C43.2992 55.4485 43.2727 55.5252 43.2461 55.5984C43.2196 55.6716 43.193 55.7414 43.1851 55.8167C43.1771 55.892 43.1877 55.9727 43.2045 56.0549C43.2213 56.137 43.2443 56.2205 43.2806 56.3026C43.3169 56.3847 43.3665 56.4655 43.4381 56.536C43.5098 56.6065 43.6036 56.6667 43.6832 56.7091C43.7629 56.7516 43.8283 56.7762 43.9177 56.8049C44.0071 56.8337 44.1203 56.8665 44.2398 56.8809C44.3593 56.8953 44.4849 56.8912 44.6035 56.8784C44.7221 56.8654 44.8336 56.8435 44.9389 56.8072C45.0441 56.7709 45.1433 56.7203 45.2282 56.6717C45.3131 56.6231 45.3839 56.5766 45.4432 56.528C45.5025 56.4794 45.5503 56.4287 45.5901 56.3726C45.6299 56.3165 45.6618 56.2549 45.6874 56.1961C45.7131 56.1372 45.7326 56.0811 45.7414 55.9996C45.7503 55.9182 45.7485 55.8114 45.7361 55.7355C45.7237 55.6595 45.7007 55.6143 45.6653 55.5548C45.6299 55.4953 45.5821 55.4213 45.5317 55.3618C45.4813 55.3023 45.4282 55.2571 45.3636 55.2099C45.299 55.1627 45.2229 55.1134 45.1424 55.0716C45.0618 55.0299 44.9769 54.9957 44.8831 54.971C44.7893 54.9464 44.6867 54.9313 44.5787 54.9279C44.4708 54.9245 44.3575 54.9327 44.3009 54.9369C44.2442 54.941 44.2442 54.9407 44.1849 54.9517ZM48.3244 42.6072C48.1386 42.6234 47.9771 42.6862 47.835 42.7645C47.6928 42.8429 47.5665 42.9408 47.4643 43.0512C47.3621 43.1616 47.2938 43.2745 47.2391 43.3651C47.1844 43.4556 47.121 43.5695 47.0937 43.7407C47.0663 43.9119 47.0651 44.1348 47.0756 44.3163C47.0862 44.4977 47.1105 44.6385 47.1573 44.7676C47.2042 44.8967 47.2722 45.0088 47.3436 45.1087C47.415 45.2085 47.494 45.3036 47.5841 45.3851C47.6741 45.4665 47.7704 45.5292 47.8663 45.5762C47.9623 45.6232 48.0697 45.6605 48.1876 45.6776C48.3055 45.6947 48.4152 45.6905 48.5145 45.6828C48.6138 45.6751 48.7209 45.662 48.8301 45.632C48.9392 45.6021 49.0392 45.5543 49.1237 45.4953C49.2082 45.4364 49.2825 45.3662 49.3518 45.2858C49.4211 45.2054 49.4825 45.118 49.5353 45.0374C49.588 44.9567 49.6316 44.8836 49.6674 44.8264C49.7031 44.7692 49.7516 44.6963 49.7795 44.5949C49.8074 44.4934 49.8158 44.382 49.8223 44.27C49.8287 44.1579 49.831 44.0427 49.827 43.9274C49.8231 43.8121 49.8134 43.6823 49.7558 43.5459C49.6981 43.4096 49.6083 43.2961 49.5486 43.2129C49.4888 43.1298 49.441 43.0506 49.3528 42.9696C49.2646 42.8886 49.1667 42.838 49.0876 42.7969C49.0086 42.7558 48.9135 42.708 48.792 42.6682C48.6706 42.6285 48.5103 42.5911 48.3244 42.6072ZM48.3824 43.0056C48.4418 43.0005 48.5168 43.0131 48.5906 43.0373C48.6643 43.0614 48.7241 43.0909 48.7977 43.1291C48.8714 43.1674 48.9236 43.1983 48.9555 43.2276C48.9874 43.257 49.0298 43.3167 49.0952 43.4077C49.1606 43.4988 49.231 43.5943 49.2634 43.6709C49.2958 43.7475 49.3055 43.8343 49.3091 43.9377C49.3126 44.0411 49.3103 44.1469 49.3043 44.2516C49.2982 44.3563 49.2867 44.4584 49.272 44.5118C49.2573 44.5652 49.241 44.5886 49.2017 44.6515C49.1623 44.7143 49.1207 44.7843 49.0733 44.8566C49.026 44.9289 48.9721 45.0041 48.9213 45.0631C48.8704 45.1221 48.82 45.1675 48.7768 45.1976C48.7337 45.2277 48.7031 45.2423 48.6571 45.255C48.6111 45.2676 48.5382 45.2778 48.4622 45.2837C48.3863 45.2895 48.3259 45.2898 48.2836 45.2837C48.2413 45.2775 48.1981 45.2639 48.1439 45.2373C48.0896 45.2108 48.0361 45.177 47.9785 45.1249C47.9209 45.0728 47.8557 44.9968 47.797 44.9146C47.7382 44.8325 47.6895 44.7512 47.6563 44.6596C47.623 44.568 47.603 44.4618 47.5936 44.2987C47.5841 44.1355 47.5876 43.9169 47.6078 43.79C47.6281 43.6631 47.6557 43.6225 47.7086 43.5349C47.7615 43.4474 47.8173 43.3585 47.8853 43.285C47.9533 43.2115 48.0422 43.1423 48.1353 43.0909C48.2284 43.0396 48.323 43.0108 48.3824 43.0056ZM48.3533 42.8061C48.2306 42.8168 48.103 42.8632 47.9854 42.9281C47.8677 42.9929 47.7601 43.0762 47.675 43.1681C47.5899 43.2601 47.5274 43.3607 47.4735 43.4498C47.4197 43.5388 47.3747 43.6162 47.3509 43.7653C47.3271 43.9143 47.3246 44.135 47.3346 44.3073C47.3447 44.4795 47.3672 44.6034 47.4072 44.7138C47.4473 44.8241 47.5048 44.9209 47.5699 45.0119C47.635 45.1028 47.7076 45.188 47.7814 45.2548C47.8552 45.3216 47.9303 45.37 48.0054 45.4067C48.0805 45.4435 48.1555 45.4687 48.2356 45.4803C48.3157 45.4919 48.4008 45.49 48.4884 45.4832C48.576 45.4764 48.6661 45.4648 48.7437 45.4435C48.8213 45.4222 48.8864 45.3912 48.9502 45.3467C49.014 45.3022 49.0766 45.2441 49.1366 45.1744C49.1967 45.1047 49.2543 45.0234 49.3043 44.947C49.3544 44.8705 49.3969 44.7989 49.4345 44.7389C49.472 44.6789 49.5045 44.6305 49.5258 44.5531C49.5471 44.4756 49.5571 44.3692 49.5634 44.2608C49.5696 44.1524 49.5721 44.042 49.5684 43.9327C49.5646 43.8233 49.5546 43.7149 49.5095 43.6084C49.4645 43.502 49.3844 43.3974 49.3218 43.3103C49.2593 43.2232 49.2142 43.1535 49.1542 43.0984C49.0941 43.0432 49.019 43.0025 48.9427 42.9629C48.8663 42.9232 48.7887 42.8845 48.6911 42.8525C48.5935 42.8206 48.4759 42.7955 48.3533 42.8061ZM41.4967 42.6072C41.3772 42.5992 41.277 42.6098 41.2382 42.6139C41.1993 42.6177 41.1636 42.6236 41.1099 42.6352C41.0561 42.6468 40.9076 42.6775 40.7602 42.7594C40.6127 42.8413 40.4956 42.9512 40.3999 43.0645C40.3043 43.1777 40.2366 43.2924 40.1842 43.4011C40.1318 43.5098 40.0918 43.6211 40.0607 43.754C40.0296 43.8868 40.005 44.044 40.0065 44.1928C40.0079 44.3416 40.0372 44.4703 40.0759 44.5941C40.1146 44.718 40.1653 44.849 40.2308 44.969C40.2963 45.0891 40.3721 45.1892 40.4399 45.2667C40.5076 45.3442 40.5787 45.4093 40.6632 45.4674C40.7477 45.5255 40.8419 45.5766 40.9379 45.6173C41.0339 45.6581 41.1459 45.6912 41.2696 45.7034C41.3932 45.7155 41.5144 45.7119 41.6307 45.6916C41.747 45.6713 41.8512 45.6233 41.932 45.5733C42.0128 45.5233 42.1045 45.4574 42.1877 45.391C42.2708 45.3245 42.3459 45.2552 42.4139 45.1741C42.4818 45.093 42.5417 45.0021 42.5916 44.9029C42.6415 44.8036 42.6808 44.6977 42.7075 44.5912C42.7342 44.4848 42.7486 44.3748 42.7513 44.2384C42.7539 44.102 42.7461 43.9377 42.7237 43.7988C42.7012 43.6599 42.6632 43.5556 42.6296 43.4717C42.596 43.3878 42.5582 43.2998 42.4965 43.2056C42.4349 43.1114 42.3521 43.0149 42.2456 42.9256C42.1392 42.8362 42.0165 42.7578 41.8835 42.7006C41.7505 42.6435 41.6162 42.6153 41.4967 42.6072ZM41.452 43.0064C41.5052 43.0101 41.562 43.0213 41.6317 43.0512C41.7014 43.0812 41.7933 43.1378 41.8645 43.1975C41.9357 43.2572 41.9927 43.3238 42.0337 43.3864C42.0747 43.449 42.1029 43.5113 42.1344 43.59C42.1659 43.6688 42.1919 43.7392 42.2095 43.848C42.2271 43.9569 42.2347 44.1133 42.2323 44.2325C42.23 44.3516 42.2199 44.4315 42.1991 44.5147C42.1782 44.598 42.1465 44.6824 42.1088 44.7573C42.0711 44.8323 42.0258 44.8994 41.9786 44.9558C41.9314 45.0121 41.8821 45.0588 41.8151 45.1124C41.7481 45.1659 41.6648 45.2249 41.6079 45.2601C41.5511 45.2953 41.5546 45.2938 41.5157 45.3005C41.4768 45.3073 41.3883 45.311 41.3342 45.3057C41.2801 45.3003 41.2461 45.2911 41.1869 45.266C41.1277 45.2409 41.0579 45.203 41.0073 45.1682C40.9566 45.1334 40.9219 45.1017 40.8694 45.0418C40.817 44.9818 40.7575 44.9041 40.7079 44.8132C40.6583 44.7222 40.6135 44.6085 40.5796 44.5C40.5457 44.3916 40.5255 44.3004 40.5245 44.1898C40.5234 44.0792 40.5446 43.9382 40.571 43.8252C40.5975 43.7122 40.6271 43.6295 40.6699 43.5408C40.7126 43.452 40.7648 43.3658 40.8343 43.2835C40.9038 43.2012 40.9971 43.1213 41.0624 43.085C41.1276 43.0488 41.1949 43.0327 41.2487 43.0211C41.3026 43.0094 41.2661 43.0153 41.3047 43.0115C41.3435 43.0076 41.3988 43.0028 41.452 43.0064ZM41.1791 42.8284C41.1253 42.84 41.0177 42.8632 40.9113 42.9223C40.8049 42.9813 40.6998 43.0762 40.6172 43.1739C40.5346 43.2717 40.4746 43.3723 40.427 43.471C40.3795 43.5698 40.3444 43.6666 40.3156 43.7895C40.2869 43.9124 40.2643 44.0614 40.2656 44.1911C40.2669 44.3208 40.2919 44.4312 40.3282 44.5473C40.3645 44.6634 40.412 44.7854 40.4696 44.8909C40.5271 44.9964 40.5947 45.0854 40.6548 45.1541C40.7148 45.2229 40.7674 45.2712 40.835 45.3177C40.9025 45.3642 40.9851 45.4087 41.0627 45.4416C41.1403 45.4745 41.2129 45.4958 41.3017 45.5045C41.3906 45.5132 41.4957 45.5093 41.5733 45.4958C41.6509 45.4822 41.7009 45.459 41.7698 45.4164C41.8386 45.3738 41.9262 45.3119 42.0013 45.2519C42.0763 45.1919 42.1389 45.1338 42.1965 45.0651C42.254 44.9964 42.3066 44.917 42.3504 44.8299C42.3942 44.7428 42.4292 44.6479 42.453 44.5531C42.4768 44.4582 42.4893 44.3634 42.4918 44.2356C42.4943 44.1079 42.4868 43.9472 42.4668 43.8233C42.4467 43.6994 42.4142 43.6123 42.3817 43.531C42.3491 43.4497 42.3166 43.3742 42.2653 43.2958C42.214 43.2174 42.1439 43.1362 42.0551 43.0616C41.9662 42.9871 41.8586 42.9194 41.7572 42.8758C41.6559 42.8322 41.5608 42.8129 41.4744 42.8071C41.3881 42.8013 41.3105 42.809 41.2717 42.8129C41.2329 42.8167 41.2329 42.8168 41.1791 42.8284ZM44.4743 14.8209C43.775 14.8468 43.0826 14.9134 42.602 15.0135C41.0977 15.3267 39.813 15.9014 38.6084 16.796L37.9612 17.276L37.5791 17.1768C35.965 16.7562 34.2751 16.837 32.7197 17.4084C28.648 18.9039 27.852 23.0887 31.1772 25.4904C31.9359 26.0385 32.9505 26.4666 33.9353 26.6526C34.079 26.6797 34.2191 26.7145 34.3202 26.7452C34.3627 26.7581 34.3932 26.7689 34.4171 26.7783C34.4226 26.7982 34.4279 26.8227 34.4333 26.8547C34.4457 26.9286 34.4545 27.0256 34.4561 27.1201C34.4596 27.336 34.4958 27.9352 34.5359 28.4726C34.5558 28.7387 34.5688 28.9899 34.5749 29.1775C34.5777 29.2644 34.5792 29.3332 34.5787 29.387C34.5613 29.3904 34.5546 29.3924 34.5331 29.3959C34.4145 29.4148 34.241 29.4335 34.0465 29.4451C33.8074 29.4594 33.609 29.4798 33.4487 29.5076C33.2884 29.5354 33.1666 29.5547 33.0485 29.6458C32.9244 29.7415 32.8932 29.8579 32.8632 30.0251C32.8332 30.1923 32.8154 30.4239 32.7986 30.7668L32.7625 31.4959L32.7349 31.4982C32.7192 31.4997 32.7256 31.4993 32.7159 31.4997C32.7099 31.4878 32.6682 31.4224 32.6037 31.2601C32.4167 30.7891 32.406 29.4489 32.6199 28.6609C32.699 28.3694 32.7427 28.2119 32.7463 28.0743C32.7499 27.9367 32.6807 27.8174 32.6056 27.7288C32.4746 27.5741 32.2675 27.4556 32.0211 27.4333C31.7748 27.411 31.5121 27.4589 31.162 27.548C28.5539 28.2116 26.4909 29.7948 25.7399 31.7224C25.5675 32.1651 25.5345 32.4456 25.5175 33.6402C25.5116 34.0584 25.4982 34.4061 25.4795 34.651C25.4702 34.7721 25.4597 34.8673 25.4491 34.931C25.4158 34.9366 25.3891 34.9417 25.3417 34.9487C25.1883 34.9711 24.9676 35.0001 24.6983 35.0325C24.1596 35.0973 23.4263 35.1772 22.6311 35.2567C21.8337 35.3363 21.0866 35.4126 20.525 35.472C20.2442 35.5018 20.0097 35.5276 19.8379 35.547C19.6661 35.5664 19.5906 35.5724 19.509 35.5882C19.3962 35.6101 19.2711 35.6499 19.1754 35.7308C19.0798 35.8116 19.0288 35.9161 18.9996 36.0373C18.9412 36.2797 18.9494 36.624 18.9768 37.2244C19.0477 38.7777 19.3563 40.0977 19.8816 41.1262C20.4069 42.1547 21.1532 42.8994 22.1141 43.2652C22.6559 43.4715 22.8742 43.5079 23.7688 43.5299C24.601 43.5503 24.9366 43.523 25.7133 43.3726C25.9607 43.3246 26.197 43.2812 26.3767 43.2498C26.4521 43.2366 26.5097 43.2271 26.5611 43.219C26.5467 43.3145 26.4805 43.4923 26.3434 43.7284C25.2519 45.6075 24.3923 47.7317 23.9626 49.617C23.2872 52.5805 23.4998 56.0603 24.512 58.2651C26.3603 62.2911 31.3303 64.8269 38.5666 65.4937C38.9112 65.5255 39.1132 65.5522 39.2509 65.5864C39.3886 65.6205 39.4737 65.6604 39.6234 65.7488C40.0566 66.0045 40.7726 66.2397 41.338 66.3633L41.3228 66.4015L41.5471 66.4383C41.9003 66.4961 42.5419 66.4972 43.215 66.4773C43.8882 66.4573 44.5453 66.416 44.9068 66.3398C45.6446 66.1844 46.6282 65.8188 47.3018 65.4533C47.4772 65.3582 47.5653 65.3199 47.6259 65.2953C47.6441 65.3419 47.667 65.3852 47.6867 65.4011C47.7139 65.4231 47.7389 65.438 47.7656 65.4526C47.8189 65.4817 47.8794 65.5074 47.9471 65.5312C48.0751 65.5763 48.1344 65.5665 48.2531 65.5709C48.3719 65.5754 48.5198 65.5758 48.6932 65.5738C49.0399 65.5698 49.4851 65.5547 49.9582 65.5319C50.9043 65.4862 51.9538 65.4109 52.549 65.3297C55.8245 64.8829 58.6608 63.9997 60.8147 62.746C61.7051 62.2277 63.0349 61.1581 63.6212 60.4856C64.8935 59.0263 65.5733 57.4688 65.8955 55.2961C66.433 51.6723 65.4967 47.5873 63.2553 43.7283C63.0897 43.4432 63.0408 43.2704 63.0367 43.2174C63.0546 43.2168 63.0453 43.2152 63.0833 43.2196C63.1947 43.2326 63.6651 43.316 64.0613 43.3975C64.6726 43.5234 65.0271 43.5496 65.8309 43.5298C66.724 43.5079 66.942 43.4714 67.4837 43.2652C68.4365 42.9024 69.1806 42.1621 69.7067 41.1431C70.2328 40.124 70.5454 38.8187 70.621 37.2891C70.6501 36.7004 70.6582 36.3541 70.6161 36.1137C70.5951 35.9935 70.5609 35.8945 70.4916 35.8094C70.4223 35.7243 70.3168 35.6654 70.2188 35.6315C70.1443 35.6057 70.1252 35.6081 70.0687 35.5992C70.0122 35.5902 69.9408 35.5799 69.8529 35.5683C69.6772 35.5452 69.4388 35.517 69.1534 35.4845C68.5828 35.4195 67.8247 35.3389 67.0141 35.2589C66.2066 35.1792 65.4616 35.0991 64.9146 35.0339C64.6411 35.0013 64.4165 34.9727 64.2607 34.9501C64.2117 34.943 64.1837 34.9374 64.1495 34.9318C64.1389 34.869 64.1275 34.7748 64.1182 34.6547C64.0994 34.4112 64.0863 34.064 64.0802 33.6403C64.0631 32.4383 64.0312 32.1658 63.855 31.7129C63.1253 29.8372 61.0367 28.2196 58.5241 27.5723C58.1319 27.4712 57.8538 27.4157 57.5965 27.4326C57.3393 27.4495 57.125 27.5715 56.9911 27.7296C56.916 27.8182 56.8467 27.9348 56.8486 28.0692C56.8507 28.2035 56.8926 28.3532 56.9674 28.6286C57.2756 29.7628 57.2104 30.9155 56.8524 31.5431C56.8094 31.6185 56.7941 31.6326 56.7735 31.6578C56.7571 31.5644 56.745 31.3797 56.7355 30.9874C56.7296 30.7446 56.7186 30.5066 56.706 30.317C56.6997 30.2222 56.6931 30.1399 56.6861 30.0737C56.679 30.0076 56.6756 29.9665 56.6604 29.9164C56.6011 29.7201 56.3787 29.588 56.1168 29.5209C55.8549 29.4538 55.5279 29.4308 55.1255 29.4401C54.9541 29.444 54.7874 29.4406 54.6655 29.432C54.6394 29.4302 54.627 29.4276 54.6056 29.4254C54.6031 29.3476 54.6053 29.2269 54.6142 29.0681C54.632 28.7499 54.6737 28.2761 54.7397 27.6465C54.8477 26.6149 54.911 26.0903 54.9915 25.8801C55.0318 25.7751 55.05 25.7734 55.0609 25.7692C55.0718 25.7649 55.1468 25.756 55.2909 25.7552C55.565 25.7537 55.9101 25.6716 56.2888 25.5611C56.6675 25.4506 57.0556 25.3095 57.3371 25.1649C58.4254 24.6061 59.2468 23.7159 59.5335 22.7752C59.8097 21.8691 59.6699 21.0024 59.1087 20.0981C58.0848 18.4482 55.665 17.5578 53.4176 18.0105C53.0125 18.0921 52.8226 18.1094 52.7543 18.0936C52.7201 18.0857 52.6917 18.0735 52.6364 18.0274C52.5812 17.9811 52.508 17.9026 52.4122 17.7934C51.0574 16.2504 48.8375 15.1759 46.3866 14.8722C45.8799 14.8095 45.1737 14.795 44.4743 14.8209ZM44.4971 15.2046C45.1779 15.1793 45.8658 15.1893 46.3096 15.2443C48.6283 15.5316 50.7354 16.5535 52.0101 18.0052C52.1087 18.1175 52.1888 18.2071 52.28 18.2831C52.3713 18.3591 52.4834 18.4231 52.6155 18.4536C52.8797 18.5146 53.1288 18.4571 53.5403 18.3742C55.5536 17.9686 57.7459 18.7726 58.6696 20.2612C59.193 21.1046 59.3127 21.8607 59.0602 22.6891C58.8059 23.5234 58.0505 24.3472 57.0682 24.8517C56.8399 24.9689 56.469 25.1061 56.1168 25.2089C55.7647 25.3117 55.4075 25.3781 55.2871 25.3787C55.1433 25.3795 55.0019 25.3716 54.8442 25.4324C54.6865 25.4932 54.5834 25.62 54.5249 25.7727C54.4078 26.0782 54.363 26.5846 54.255 27.6162C54.1888 28.2482 54.1469 28.7244 54.1286 29.0518C54.1194 29.2156 54.1159 29.3415 54.1191 29.4355C54.1205 29.4826 54.124 29.521 54.1305 29.5576C54.1341 29.5759 54.1379 29.5935 54.1466 29.6156C54.1554 29.6377 54.1613 29.6663 54.2179 29.7097C54.3206 29.7885 54.364 29.7756 54.4232 29.7854C54.4824 29.7953 54.548 29.8016 54.6218 29.8068C54.7696 29.8171 54.9503 29.8207 55.1398 29.8163C55.508 29.8078 55.7906 29.8337 55.9638 29.8781C56.137 29.9224 56.175 29.9653 56.1862 30.0023C56.1841 29.9951 56.195 30.0444 56.2014 30.1045C56.2078 30.1645 56.2143 30.2438 56.2204 30.336C56.2326 30.5204 56.2431 30.7558 56.249 30.9946C56.2593 31.4219 56.2611 31.6344 56.2984 31.787C56.317 31.8633 56.3511 31.9433 56.4409 32.0024C56.5308 32.0615 56.6236 32.0685 56.6776 32.0744C56.7949 32.0873 56.967 32.0617 57.0711 31.9848C57.1751 31.9078 57.2273 31.8188 57.2982 31.6944C57.7318 30.9344 57.7675 29.7432 57.4436 28.5513C57.3693 28.2778 57.3362 28.1311 57.3353 28.0654C57.3342 27.9997 57.3349 28.0117 57.3989 27.936C57.4866 27.8325 57.5162 27.8154 57.6384 27.8074C57.7607 27.7994 57.9982 27.8335 58.3703 27.9294C60.7275 28.5367 62.7109 30.0798 63.3884 31.8216C63.5549 32.2497 63.5766 32.4456 63.5937 33.6438C63.5998 34.0715 63.6131 34.4235 63.6327 34.6773C63.6425 34.8042 63.6543 34.9058 63.6679 34.9846C63.6746 35.024 63.6814 35.0576 63.6916 35.0897C63.7018 35.1218 63.6855 35.1475 63.7762 35.2176C63.8613 35.2834 63.8728 35.2651 63.8969 35.2713C63.9209 35.2774 63.9436 35.2825 63.9701 35.2874C64.023 35.2973 64.089 35.3078 64.1716 35.3198C64.3366 35.3437 64.5641 35.3728 64.8406 35.4058C65.3937 35.4716 66.1414 35.5521 66.9524 35.6322C67.7603 35.7119 68.5161 35.7918 69.0823 35.8564C69.3654 35.8886 69.6019 35.9171 69.7714 35.9394C69.8561 35.9506 69.9245 35.9606 69.9719 35.9681C70.0193 35.9757 70.0683 35.9913 70.0204 35.9747C70.0625 35.9893 70.0657 35.9921 70.0802 36.01C70.0948 36.0279 70.1185 36.0729 70.1344 36.1636C70.1661 36.3451 70.1633 36.6895 70.1344 37.2743C70.0604 38.7724 69.7528 40.0397 69.2553 41.0033C68.7578 41.967 68.0754 42.6199 67.2689 42.927C66.7437 43.127 66.7006 43.1317 65.8158 43.1534C65.0277 43.1727 64.7716 43.154 64.1858 43.0336C63.7792 42.9499 63.3461 42.869 63.1556 42.8469C63.0252 42.8317 62.8989 42.8269 62.7678 42.8763C62.6367 42.9256 62.5493 43.0471 62.5378 43.1504C62.5148 43.3572 62.6254 43.5622 62.8115 43.8826C65.0211 47.6867 65.9373 51.71 65.4118 55.2526C65.0953 57.3865 64.4452 58.8669 63.2173 60.2753C62.6916 60.8784 61.3374 61.9706 60.522 62.4453C58.4446 63.6545 55.6791 64.5206 52.4644 64.9592C51.9166 65.0339 50.8628 65.111 49.9278 65.1562C49.4603 65.1788 49.0209 65.1936 48.6866 65.1974C48.5194 65.1993 48.3775 65.198 48.276 65.1945C48.1745 65.1907 48.0835 65.1657 48.1486 65.1886C48.1101 65.1751 48.0767 65.1599 48.0555 65.149C48.0503 65.1417 48.0483 65.1239 48.0432 65.1152C48.0232 65.0814 47.9991 65.0467 47.9709 65.0122C47.9339 64.967 47.8532 64.9081 47.7552 64.8917C47.6571 64.8753 47.5771 64.8936 47.509 64.9145C47.373 64.9566 47.2397 65.0274 47.0224 65.1453C46.4093 65.4779 45.4316 65.8391 44.7785 65.9766C44.5335 66.0283 43.852 66.0814 43.1961 66.1009C42.5402 66.1203 41.8628 66.1051 41.6479 66.07C41.6042 66.0628 41.5324 66.0218 41.4816 66.0105L41.3827 66.2545L41.3571 66.2266L41.4502 65.9987C40.9713 65.8876 40.2636 65.653 39.9191 65.4496C39.751 65.3504 39.5968 65.2764 39.4002 65.2276C39.2036 65.1788 38.9767 65.1527 38.6246 65.1203C31.5054 64.4643 26.7483 62.0117 24.9701 58.1386C24.0055 56.0374 23.7808 52.5821 24.4417 49.6824C24.863 47.834 25.713 45.7324 26.7873 43.8827C26.9398 43.6201 27.0315 43.4133 27.0525 43.2373C27.063 43.1493 27.0603 43.0631 26.9964 42.9749C26.9325 42.8867 26.7812 42.8264 26.659 42.8264C26.5698 42.8264 26.5626 42.8346 26.5012 42.8441C26.4399 42.8535 26.3618 42.8669 26.2693 42.883C26.0845 42.9153 25.8453 42.9594 25.5946 43.008C24.8338 43.1553 24.6011 43.1736 23.784 43.1535C22.8976 43.1318 22.8553 43.1271 22.3299 42.9271C21.5151 42.6169 20.8308 41.9607 20.3341 40.988C19.8373 40.0154 19.5329 38.7334 19.4635 37.2112C19.4363 36.615 19.4381 36.2711 19.4777 36.1064C19.4976 36.0241 19.5219 35.9952 19.5338 35.9851C19.5458 35.975 19.5609 35.9666 19.6279 35.9535C19.6003 35.9589 19.7389 35.9381 19.9083 35.919C20.0776 35.8999 20.3117 35.8751 20.5916 35.8455C21.1515 35.7862 21.8976 35.7097 22.6939 35.6301C23.4926 35.5503 24.2287 35.4693 24.7734 35.4037C25.0458 35.3709 25.2694 35.3422 25.432 35.3184C25.5134 35.3065 25.5794 35.2959 25.6316 35.2861C25.6577 35.2812 25.68 35.2768 25.7039 35.2707C25.7277 35.2645 25.738 35.2818 25.8227 35.2163C25.9171 35.1432 25.8983 35.1196 25.9082 35.0876C25.9181 35.0556 25.9243 35.0222 25.931 34.9825C25.9443 34.9032 25.9555 34.8005 25.9652 34.673C25.9847 34.4181 25.9982 34.0662 26.0042 33.644C26.0211 32.4533 26.0436 32.2473 26.2057 31.8313C26.9067 30.0319 28.8524 28.5317 31.3141 27.9053C31.639 27.8226 31.8517 27.7973 31.9651 27.8075C32.0786 27.8178 32.1164 27.838 32.1989 27.9354C32.2622 28.01 32.2616 27.9948 32.2598 28.0663C32.2579 28.1377 32.2224 28.294 32.1438 28.5837C31.9089 29.4492 31.8877 30.7376 32.139 31.3704C32.2117 31.5534 32.2415 31.6585 32.351 31.7622C32.4057 31.814 32.499 31.858 32.5819 31.871C32.6649 31.8839 32.7284 31.8779 32.7901 31.8726L33.233 31.8329L33.2843 30.7817C33.3008 30.4432 33.32 30.2173 33.3451 30.0775C33.3702 29.9377 33.4123 29.8969 33.3917 29.9129C33.3618 29.9359 33.431 29.8962 33.5551 29.8746C33.6793 29.8531 33.8595 29.8343 34.0836 29.821C34.2946 29.8084 34.4834 29.7889 34.632 29.7651C34.7062 29.7532 34.7695 29.741 34.8287 29.7239C34.8583 29.7154 34.8871 29.7058 34.9209 29.6894C34.9546 29.673 35.0042 29.6521 35.0397 29.5806C35.0711 29.5172 35.0595 29.5139 35.0615 29.4902C35.0635 29.4665 35.0649 29.4399 35.0653 29.4086C35.0663 29.3459 35.0647 29.2649 35.0615 29.1682C35.0552 28.9747 35.0417 28.721 35.0216 28.4514C34.9818 27.9175 34.9459 27.3067 34.9427 27.115C34.941 27.0058 34.9314 26.8978 34.9161 26.8063C34.9085 26.7606 34.899 26.7194 34.8876 26.6814C34.8762 26.6433 34.8724 26.6141 34.8287 26.5608C34.7649 26.483 34.7198 26.4764 34.669 26.4549C34.6182 26.4334 34.5616 26.414 34.4979 26.3946C34.3706 26.356 34.2153 26.3183 34.0512 26.2873C33.1606 26.1192 32.2006 25.7152 31.5089 25.2156C28.4168 22.9822 29.1504 19.1363 32.9278 17.7488C34.3768 17.2165 35.9245 17.1426 37.4242 17.5334L38.0857 17.7061L38.9449 17.0674C40.1003 16.2092 41.3004 15.6741 42.7284 15.3767C43.1427 15.2904 43.8164 15.23 44.4971 15.2046ZM44.4819 15.8368C43.2824 15.8842 42.6433 16.0139 41.5138 16.4388C40.4705 16.8312 39.6178 17.3522 38.905 18.0346C38.7745 18.1595 38.6377 18.2785 38.5267 18.3654C38.4712 18.4088 38.4212 18.444 38.386 18.4669C38.3509 18.4897 38.3087 18.499 38.368 18.4845C38.4477 18.4649 38.4026 18.4803 38.3556 18.4742C38.3087 18.4681 38.2385 18.4551 38.156 18.4374C37.9911 18.4021 37.7763 18.3467 37.5582 18.2801C35.4236 17.6287 33.446 17.9001 31.9518 19.0645C30.9135 19.8735 30.4418 20.7497 30.4368 21.8798C30.4322 22.9386 30.9139 23.8515 31.8681 24.59C33.087 25.5333 34.906 25.9521 36.5926 25.6771C36.8975 25.6274 37.1014 25.5954 37.2684 25.4794C37.3518 25.4214 37.4085 25.3403 37.4347 25.2618C37.4609 25.1834 37.4651 25.107 37.4651 25.0215C37.4651 24.8772 37.5128 24.7964 37.5706 24.7524C37.6283 24.7084 37.7153 24.68 37.8814 24.6907C38.0117 24.6991 38.0138 24.6961 38.0819 24.7429C38.15 24.7897 38.2711 24.9115 38.4763 25.1427C39.1751 25.9303 40.2752 26.7071 41.262 27.1002C42.8202 27.721 44.2464 27.9292 45.8771 27.7713C47.9609 27.5696 49.9124 26.7143 51.1443 25.4581C51.3928 25.2047 51.7615 24.7099 52.0035 24.3158C52.226 23.9533 52.392 23.7461 52.4948 23.6719C52.5462 23.6348 52.57 23.629 52.5975 23.6263C52.6249 23.6235 52.6711 23.6272 52.7505 23.6506C52.8725 23.6864 52.9292 23.724 52.9729 23.7821C53.0165 23.8403 53.047 23.9333 53.047 24.0791C53.047 24.2207 53.0445 24.3234 53.1135 24.4334C53.1823 24.5434 53.3132 24.6044 53.4367 24.6502C53.733 24.7604 54.1462 24.7747 54.6028 24.7634C55.0594 24.7522 55.5329 24.7028 55.8811 24.601C57.0643 24.2553 57.9564 23.4435 58.2381 22.4642C58.5202 21.4837 58.2187 20.6162 57.3419 19.8914C56.1634 18.9171 54.372 18.6494 52.8721 19.2321C52.6848 19.3048 52.5405 19.3516 52.4397 19.371C52.3389 19.3904 52.2922 19.3871 52.242 19.371C52.1417 19.3388 51.9647 19.1816 51.6946 18.8248C50.1667 16.8068 47.5318 15.7161 44.4819 15.8368ZM44.5066 16.2124C47.3946 16.0981 49.8303 17.1077 51.2745 19.0152C51.5532 19.3833 51.7384 19.6168 52.0557 19.7187C52.2144 19.7696 52.3901 19.7683 52.5566 19.7363C52.7231 19.7043 52.8905 19.6461 53.0898 19.5687C54.399 19.0601 55.9443 19.2864 56.9864 20.148C57.7734 20.7985 58.0172 21.4985 57.7629 22.3826C57.5162 23.2402 56.7317 23.9501 55.7091 24.2489C55.456 24.3229 55.0057 24.3768 54.5876 24.3871C54.1696 24.3974 53.7573 24.3514 53.6477 24.3106C53.5484 24.2737 53.5528 24.2713 53.5517 24.2695C53.5506 24.2677 53.5336 24.2106 53.5336 24.0791C53.5336 23.8938 53.4973 23.731 53.3939 23.5932C53.2905 23.4555 53.1205 23.3564 52.9235 23.2985C52.8013 23.2625 52.672 23.2399 52.5348 23.2536C52.3975 23.2674 52.2672 23.3211 52.1622 23.397C51.9521 23.5486 51.7936 23.7808 51.5644 24.1541C51.3382 24.5224 50.9569 25.0266 50.7565 25.231C49.6104 26.3997 47.7683 27.2089 45.8163 27.3979C44.2707 27.5476 42.9762 27.3601 41.4844 26.7658C40.6023 26.4144 39.5241 25.6592 38.8774 24.9303C38.6694 24.6958 38.5485 24.5599 38.4051 24.4613C38.2617 24.3628 38.0828 24.3262 37.9213 24.3158C37.6564 24.2987 37.4036 24.3514 37.2294 24.4841C37.0552 24.6168 36.9785 24.8095 36.9785 25.0215C36.9785 25.0941 36.9724 25.1432 36.9642 25.1677C36.956 25.1923 36.9543 25.191 36.9424 25.1993C36.9185 25.216 36.7829 25.2616 36.4928 25.3089C34.9741 25.5564 33.3099 25.1734 32.2122 24.3239C31.3401 23.6489 30.9192 22.8524 30.9235 21.8805C30.928 20.8272 31.3271 20.0854 32.2968 19.3298C33.6704 18.2595 35.3786 18.0194 37.3796 18.63C37.6123 18.7011 37.8391 18.7605 38.0258 18.8006C38.1192 18.8206 38.2024 18.8359 38.2758 18.8454C38.3492 18.8549 38.3912 18.8737 38.5153 18.8432C38.6186 18.8178 38.6456 18.7902 38.6987 18.7557C38.7519 18.7213 38.8099 18.6792 38.8727 18.63C38.9982 18.5318 39.1429 18.4057 39.2832 18.2713C39.9535 17.6297 40.7415 17.1475 41.7267 16.7769C42.8289 16.3623 43.3403 16.2585 44.5066 16.2124ZM52.7334 25.178C52.5303 25.178 52.4376 25.2604 52.3142 25.3537C52.1909 25.447 52.0541 25.5749 51.8932 25.7426C49.7748 27.9496 46.2392 28.9227 42.795 28.2469C41.3406 27.9616 40.063 27.4042 38.8574 26.5247C38.6925 26.4043 38.5765 26.3129 38.4573 26.2387C38.3381 26.1645 38.2009 26.1059 38.0439 26.0895C37.7299 26.0567 37.4329 26.1467 36.7665 26.2858C36.4314 26.3557 36.2304 26.4004 36.0756 26.46C35.9982 26.4898 35.9269 26.5263 35.8713 26.5798C35.8156 26.6333 35.7865 26.6996 35.7762 26.7525C35.7637 26.8171 35.7679 26.866 35.7696 26.9562C35.7711 27.0463 35.7753 27.1617 35.7819 27.2943C35.7952 27.5595 35.8177 27.894 35.8427 28.2242C35.8678 28.5543 35.8959 28.88 35.9216 29.1298C35.9345 29.2546 35.9464 29.36 35.9577 29.4392C35.9634 29.4788 35.9691 29.5121 35.9749 29.5399C35.9777 29.5539 35.98 29.5662 35.9844 29.5804C35.9887 29.5945 35.9826 29.6028 36.0205 29.6502C36.0206 29.6503 36.0792 29.7008 36.0794 29.7009C36.0796 29.701 36.108 29.716 36.1184 29.72C36.1391 29.7281 36.1513 29.731 36.1611 29.7332C36.1808 29.7378 36.1913 29.7386 36.2011 29.7399C36.2205 29.7423 36.2352 29.7438 36.2533 29.745C36.2896 29.7475 36.3349 29.7489 36.393 29.7509C36.5093 29.7549 36.6748 29.7584 36.8872 29.7619C37.3121 29.769 37.9234 29.7757 38.6778 29.781C40.1867 29.7916 42.2707 29.7979 44.5893 29.7979C47.8758 29.7979 49.9571 29.7938 51.2232 29.781C51.8562 29.7747 52.2841 29.7659 52.5623 29.7546C52.7014 29.7489 52.8024 29.743 52.8797 29.7347C52.9184 29.7306 52.95 29.7267 52.9881 29.7178C53.0072 29.7134 53.0283 29.7085 53.0584 29.695C53.0885 29.6816 53.1401 29.6589 53.1725 29.5914C53.2004 29.5332 53.1948 29.5236 53.2019 29.4848C53.209 29.446 53.2171 29.3971 53.2256 29.3378C53.2427 29.2191 53.2625 29.0595 53.2846 28.8725C53.3287 28.4985 53.3811 28.0141 53.429 27.5325C53.477 27.0508 53.5205 26.5725 53.5497 26.2093C53.5643 26.0278 53.5754 25.8748 53.5811 25.7639C53.5839 25.7084 53.5859 25.6639 53.5859 25.6286C53.5859 25.611 53.5856 25.5963 53.5838 25.5801C53.5834 25.572 53.5827 25.5641 53.5799 25.5514C53.5784 25.5451 53.5763 25.5377 53.5723 25.5265C53.5702 25.5208 53.5673 25.5136 53.5628 25.5051C53.5585 25.4966 53.5412 25.473 53.541 25.4728C53.4397 25.3539 53.3158 25.3134 53.176 25.2648C53.0363 25.2162 52.8929 25.178 52.7334 25.178ZM52.7334 25.5544C52.7609 25.5544 52.8809 25.5747 52.9767 25.608C53.0504 25.6337 53.0815 25.6562 53.0983 25.6632C53.098 25.6879 53.0962 25.7115 53.0944 25.7492C53.089 25.8548 53.0785 26.0057 53.064 26.1858C53.035 26.5459 52.9911 27.0235 52.9433 27.5038C52.8955 27.9841 52.8436 28.4676 52.7998 28.8387C52.7779 29.0242 52.7583 29.1817 52.7418 29.2959C52.7375 29.326 52.7342 29.3436 52.7304 29.3672C52.6775 29.3712 52.6304 29.3752 52.5375 29.3789C52.273 29.3897 51.8467 29.3983 51.2164 29.4047C49.9558 29.4174 47.8751 29.4216 44.5892 29.4216C42.2718 29.4216 40.1881 29.4153 38.6815 29.4047C37.9282 29.3994 37.3186 29.3933 36.8976 29.3863C36.6974 29.3829 36.5474 29.3795 36.4385 29.376C36.4287 29.3049 36.4179 29.2133 36.4062 29.0996C36.3809 28.8541 36.3532 28.5303 36.3283 28.2021C36.3034 27.8739 36.2815 27.5417 36.2684 27.2803C36.2618 27.1496 36.2576 27.0359 36.256 26.951C36.2545 26.8683 36.2602 26.8023 36.2579 26.8121C36.2581 26.8121 36.2597 26.8091 36.2921 26.7966C36.3716 26.766 36.5638 26.7176 36.8928 26.6489C37.5658 26.5084 37.8644 26.4503 37.9782 26.4622C38.035 26.4681 38.0688 26.4802 38.1521 26.532C38.2354 26.5839 38.3531 26.6744 38.5237 26.7989C39.7798 27.7153 41.1396 28.3103 42.6751 28.6115C46.3047 29.3236 50.0513 28.2926 52.2837 25.9668C52.436 25.8081 52.5628 25.692 52.6544 25.6227C52.7459 25.5535 52.8185 25.5544 52.7334 25.5544ZM59.008 28.8438C58.9112 28.8342 58.7885 28.8501 58.6981 28.9034C58.5174 29.0099 58.4984 29.1552 58.4757 29.329C58.453 29.5027 58.4497 29.7271 58.4453 30.0236C58.4228 31.5298 58.0385 32.3417 56.9313 33.252L56.2261 33.8313V34.6487V35.483L56.6462 35.738C57.6415 36.3443 58.7299 36.5381 60.215 36.3959C60.2264 36.395 60.2339 36.3978 60.2453 36.3965C60.7408 36.3476 61.2988 36.2458 61.7365 36.1385C61.9554 36.0849 62.1425 36.0308 62.2859 35.9753C62.3576 35.9476 62.4172 35.9219 62.476 35.882C62.5053 35.8621 62.5369 35.8384 62.5644 35.7967C62.5918 35.755 62.6091 35.6822 62.5776 35.6188C62.6037 35.6716 62.5849 35.6427 62.5861 35.6137C62.5876 35.5847 62.5922 35.5411 62.6004 35.4895C62.6168 35.3862 62.6474 35.2504 62.686 35.1146C62.9199 34.2893 62.9028 32.8466 62.6404 32.0964C62.2468 30.9718 61.221 29.8893 59.9222 29.2215C59.6557 29.0845 59.4533 28.9801 59.2759 28.9128C59.1872 28.8792 59.1047 28.8534 59.008 28.8438ZM30.7638 28.86C30.6604 28.8335 30.5446 28.8433 30.4473 28.8695C30.2527 28.9221 30.053 29.0281 29.6765 29.2216C28.3777 29.8894 27.3519 30.9719 26.9583 32.0965C26.6939 32.8521 26.6792 34.2909 26.9165 35.1294C26.985 35.3713 27.0146 35.5029 27.0154 35.5623C27.0162 35.6217 27.0167 35.6116 26.9593 35.6792C26.9156 35.7307 26.7584 35.8274 26.7407 35.8328C26.7845 35.8192 26.7356 35.8332 26.6875 35.8402C26.6394 35.8472 26.5703 35.8561 26.485 35.8666C26.3145 35.8877 26.0769 35.9151 25.7922 35.946C25.2227 36.0077 24.4622 36.0846 23.649 36.1621C22.6581 36.2566 21.9055 36.3348 21.3861 36.3981C21.1264 36.4297 20.9254 36.4577 20.7778 36.4826C20.7041 36.4951 20.6445 36.5067 20.5925 36.5194C20.5406 36.5321 20.5063 36.5272 20.4224 36.5885C20.2891 36.6858 20.283 36.7792 20.2627 36.8957C20.2425 37.0122 20.2368 37.1542 20.2409 37.3265C20.2489 37.671 20.3006 38.1333 20.3939 38.6937C20.7141 40.6166 21.48 41.9558 22.7005 42.3845C23.006 42.4918 23.4489 42.5247 23.9427 42.5293C24.4365 42.5339 24.9611 42.5005 25.3674 42.419C26.6376 42.1645 27.8431 41.5771 28.8943 40.7122C29.0675 40.5697 29.2403 40.4394 29.3743 40.3483C29.4389 40.3044 29.4942 40.271 29.532 40.2498C29.6293 40.2575 29.7507 40.2934 29.8466 40.3638C29.9456 40.4363 29.9938 40.5256 30.0006 40.5887C29.9981 40.5927 29.9979 40.5938 29.9949 40.5983C29.9709 40.6348 29.9323 40.6884 29.8846 40.7519C29.7893 40.8788 29.6562 41.0469 29.5092 41.2223C29.0433 41.7786 28.3744 42.7474 27.8147 43.6289C27.5348 44.0697 27.2832 44.4874 27.1 44.8198C27.0084 44.9859 26.9337 45.1309 26.8804 45.249C26.8272 45.3672 26.7882 45.4413 26.7882 45.5467C26.7882 45.6056 26.826 45.6802 26.8842 45.7246C26.9424 45.769 27.0045 45.7883 27.0619 45.8011C27.1768 45.8267 27.2946 45.8297 27.4573 45.8297C27.9894 45.8297 28.5087 45.9782 28.8848 46.2017C29.261 46.4251 29.4833 46.7151 29.4864 46.9933C29.4892 47.244 29.2482 47.8533 28.7318 48.7164C28.1671 49.66 27.8638 50.2173 28.0104 50.7099C28.0837 50.9561 28.2812 51.1601 28.5655 51.3391C28.8498 51.518 29.2251 51.6826 29.7079 51.8779C30.1959 52.0753 30.5258 52.2443 30.7448 52.4086C30.9638 52.5729 31.0784 52.7294 31.1544 52.9393C31.242 53.1813 31.2316 53.5974 31.1287 53.9986C31.0259 54.3997 30.8295 54.7921 30.6241 55.0005C30.3518 55.2765 29.8943 55.4656 29.0008 55.6216C28.3136 55.7415 27.8971 55.825 27.5989 56.034C27.3007 56.243 27.2053 56.5367 27.1076 56.9697C26.9682 57.5869 26.8455 57.795 26.4337 58.1274L25.9975 58.4795L26.4176 59.1117C27.7777 61.1553 30.5454 62.8186 34.0522 63.7309C34.6423 63.8844 34.9378 63.963 35.1537 63.9925C35.2617 64.0074 35.3649 64.0103 35.4645 63.9823C35.5641 63.9542 35.6261 63.9058 35.6688 63.8727L35.7591 63.8029L35.7487 63.7603C35.7548 63.7465 35.7615 63.733 35.7677 63.7169C35.7864 63.668 35.8068 63.6053 35.8313 63.5265C35.8803 63.369 35.9425 63.1496 36.0148 62.8804C36.1594 62.3419 36.3444 61.6041 36.5413 60.7737C36.8403 59.5122 37.0093 58.7813 37.0906 58.3487C37.1313 58.1324 37.1509 57.9918 37.1524 57.8856C37.1538 57.7794 37.1453 57.6822 37.0384 57.6004C36.9355 57.5217 36.8507 57.499 36.7171 57.4505C36.5835 57.4019 36.4222 57.3512 36.259 57.3064C36.0581 57.2512 35.9241 57.2038 35.8446 57.1645C35.7652 57.1253 35.7418 57.1016 35.7211 57.0682C35.634 56.9277 35.6853 56.7899 35.9121 56.6749C36.0077 56.6265 35.968 56.6302 36.049 56.6375C36.13 56.6448 36.3273 56.6903 36.6934 56.7852L37.8614 57.0881L37.7122 56.4934C37.6102 56.0862 37.63 55.4573 37.7721 54.9255C38.2711 53.0569 40.4105 51.4697 43.2493 50.9054C43.9421 50.7677 44.2753 50.7382 45.1482 50.7371C46.1117 50.7355 46.7899 50.855 47.5289 51.0693L47.6734 50.7143C46.8842 50.4902 46.1376 50.3593 45.1472 50.3607C44.2588 50.3617 43.8426 50.3987 43.1276 50.5408C40.1331 51.1361 37.8394 52.8142 37.2959 54.849C37.1442 55.417 37.1227 56.0488 37.2351 56.5287L36.8483 56.428C36.4802 56.3325 36.2853 56.2802 36.106 56.2641C35.9268 56.2479 35.7579 56.3024 35.6451 56.3596C35.2606 56.5545 35.0913 56.9213 35.283 57.2307C35.3443 57.3296 35.4498 57.4154 35.5833 57.4813C35.7168 57.5473 35.8793 57.601 36.0965 57.6607C36.2441 57.7012 36.3935 57.7492 36.5099 57.7915C36.6264 57.8338 36.7305 57.8942 36.6962 57.868C36.6433 57.8275 36.6668 57.811 36.6658 57.8819C36.6648 57.9529 36.6482 58.0856 36.6088 58.295C36.53 58.714 36.3621 59.4446 36.0632 60.7053C35.8669 61.5335 35.6821 62.2699 35.5386 62.804C35.4669 63.071 35.4049 63.2877 35.358 63.4383C35.3346 63.5136 35.3155 63.5725 35.301 63.6103C35.2977 63.6191 35.296 63.6218 35.2934 63.628C35.3021 63.6261 35.2992 63.6305 35.2383 63.6221C35.1059 63.604 34.7977 63.527 34.208 63.3737C30.7976 62.4865 28.137 60.8719 26.8509 58.9397L26.5886 58.5465L26.7854 58.3877C27.2431 58.0182 27.4407 57.6807 27.5866 57.0344C27.6812 56.6153 27.7584 56.4293 27.9249 56.3126C28.0914 56.1959 28.4324 56.1071 29.1082 55.9892C30.05 55.8247 30.643 55.6021 31.0109 55.2291C31.2967 54.9393 31.4928 54.5128 31.6058 54.0721C31.7188 53.6314 31.7482 53.1838 31.6229 52.8379C31.5276 52.5746 31.3564 52.3432 31.0831 52.1381C30.8098 51.933 30.4414 51.7505 29.9331 51.5449C29.4592 51.3533 29.1068 51.1942 28.8734 51.0473C28.64 50.9004 28.5297 50.7766 28.4847 50.6254C28.3947 50.3229 28.6136 49.8089 29.1728 48.8744C29.6992 47.9946 29.9776 47.3976 29.973 46.9897C29.9683 46.563 29.6448 46.1785 29.1813 45.9033C28.7179 45.628 28.1041 45.4534 27.4573 45.4534C27.3764 45.4534 27.3575 45.4488 27.3119 45.4453C27.3221 45.4139 27.3197 45.4165 27.3395 45.3726C27.3868 45.2675 27.4587 45.1289 27.5476 44.9675C27.7254 44.6449 27.9738 44.2315 28.2509 43.7951C28.8051 42.9224 29.4771 41.9529 29.9179 41.4267C30.0687 41.2468 30.2048 41.0752 30.3057 40.9408C30.3561 40.8736 30.3973 40.8159 30.4283 40.7688C30.4438 40.7453 30.4569 40.7252 30.4682 40.7041C30.4795 40.6831 30.4977 40.6803 30.4977 40.6034C30.4977 40.3991 30.3616 40.2226 30.1812 40.0904C30.0007 39.9581 29.7651 39.8625 29.5007 39.8625C29.4075 39.8625 29.3794 39.8815 29.3467 39.8948C29.314 39.9081 29.2857 39.923 29.2555 39.9397C29.1951 39.9729 29.128 40.0151 29.053 40.0661C28.9031 40.168 28.7225 40.3039 28.5398 40.4542C27.5404 41.2765 26.4122 41.8207 25.2457 42.0544C24.9097 42.1218 24.4089 42.1573 23.9494 42.1529C23.4898 42.1486 23.0511 42.0947 22.9011 42.0419C21.9752 41.7167 21.1865 40.5123 20.8757 38.6459C20.7839 38.0943 20.735 37.6412 20.7275 37.3199C20.7237 37.1592 20.7307 37.0308 20.7455 36.9457C20.758 36.8741 20.7752 36.8617 20.7541 36.8752C20.7833 36.8684 20.8231 36.86 20.8814 36.8502C21.012 36.8282 21.2076 36.801 21.4621 36.77C21.9713 36.7081 22.7208 36.6298 23.7089 36.5356C24.5244 36.4578 25.2873 36.3809 25.8606 36.3187C26.1473 36.2877 26.3861 36.2604 26.562 36.2386C26.65 36.2277 26.7218 36.2182 26.7778 36.2099C26.8338 36.2017 26.8521 36.2037 26.9222 36.182C27.115 36.1222 27.2563 36.0164 27.367 35.8857C27.439 35.8007 27.5036 35.6862 27.502 35.5586C27.5003 35.4311 27.461 35.2931 27.3917 35.0485C27.1825 34.3092 27.2067 32.8269 27.4278 32.1949C27.7857 31.1725 28.7518 30.1485 29.9455 29.5347C30.319 29.3427 30.5324 29.2454 30.607 29.2253C30.6442 29.2152 30.6272 29.2214 30.6108 29.2172C30.5943 29.213 30.6047 29.2132 30.6402 29.2407C30.6722 29.2654 30.6687 29.2528 30.6773 29.3113C30.6859 29.3697 30.6805 29.4899 30.6573 29.6876C30.5816 30.3341 30.7378 31.2746 31.0232 31.9119C31.2878 32.5028 31.6969 33.0031 32.3614 33.5585L32.7986 33.9238V34.8507C32.7986 35.3305 32.798 35.5804 32.829 35.7564C32.8599 35.9323 32.9707 36.0584 33.0761 36.1349L33.3479 36.3319H38.2843H43.0554L43.5087 36.5436C44.1171 36.8273 45.0742 37.0652 46.2335 37.2383C47.6216 37.4455 48.5577 37.6399 48.811 37.7388C49.0359 37.8267 49.1637 37.9596 49.2264 38.2071C49.289 38.4546 49.2619 38.8133 49.1256 39.2766C49.0804 39.4303 49.0519 39.4955 49.0296 39.5434C49.0197 39.5415 49.0144 39.5396 49.003 39.5376C48.932 39.5248 48.841 39.5096 48.736 39.4927C48.5258 39.459 48.2582 39.4187 47.9804 39.3795C46.5256 39.1742 43.3246 39.1592 41.8417 39.3494C39.5766 39.6399 38.2661 40.2436 37.2104 41.4972C36.1471 42.7599 35.7176 44.7935 36.2029 46.2612C36.421 46.9205 36.7158 47.3281 37.2712 47.724C37.8013 48.1019 38.3872 48.2983 39.2671 48.4039C39.5585 48.4389 40.2738 48.4542 41.2781 48.4679C42.2825 48.4816 43.5433 48.488 44.8041 48.4877C46.0649 48.4876 47.3251 48.4806 48.3311 48.4664C48.4613 48.4645 48.4721 48.4596 48.5924 48.4576L48.7474 48.0769C48.5547 48.0809 48.5404 48.0871 48.3225 48.0901C47.321 48.1042 46.0626 48.1111 44.8041 48.1114C43.5457 48.1116 42.2866 48.1052 41.2867 48.0916C40.2867 48.0779 39.5124 48.0526 39.3412 48.032C38.5149 47.9329 38.0662 47.7786 37.601 47.4469C37.0994 47.0893 36.8795 46.7884 36.6743 46.1679C36.2345 44.8379 36.6563 42.8451 37.6181 41.7031C38.6154 40.5188 39.7296 40.0017 41.9215 39.7206C43.2821 39.5461 46.5648 39.5626 47.8929 39.75C48.1671 39.7887 48.432 39.8288 48.6371 39.8617C48.7397 39.8782 48.8279 39.8927 48.8928 39.9044C48.9576 39.916 49.0143 39.9298 48.9954 39.9242C49.0589 39.9429 49.169 39.9554 49.2644 39.9198C49.3601 39.8842 49.4081 39.8271 49.4412 39.7765C49.5073 39.6752 49.543 39.5563 49.6008 39.3597C49.7456 38.8673 49.7871 38.4655 49.7035 38.1351C49.6198 37.8046 49.3861 37.5419 49.0306 37.4029C48.6178 37.2416 47.7259 37.0776 46.3257 36.8685C45.2006 36.7006 44.275 36.4609 43.7606 36.2209L43.1913 35.9556H38.2843H33.5409L33.4097 35.86C33.3219 35.7962 33.3324 35.8284 33.3109 35.7057C33.2893 35.583 33.2852 35.3296 33.2852 34.8508V33.7769L32.7188 33.3035C32.0848 32.7735 31.7254 32.3301 31.4832 31.7892C31.2303 31.2244 31.0761 30.2839 31.142 29.7215C31.166 29.5173 31.1772 29.385 31.1601 29.2687C31.143 29.1524 31.0722 29.0427 30.9843 28.9747C30.9321 28.9343 30.8672 28.8865 30.7638 28.86ZM58.987 29.2297C59.0077 29.2346 59.0219 29.2358 59.0621 29.251C59.1877 29.2987 59.3869 29.3983 59.6523 29.5348C60.846 30.1485 61.8131 31.1725 62.1709 32.195C62.3897 32.8203 62.4149 34.3114 62.2099 35.0346C62.1683 35.1814 62.1365 35.3249 62.1177 35.4433C62.1083 35.5025 62.1026 35.5555 62.1006 35.602C62.1004 35.6083 62.1042 35.6169 62.1034 35.6226C62.0892 35.6292 62.0891 35.6307 62.0683 35.6388C61.9656 35.6784 61.7932 35.7299 61.5893 35.7799C61.1815 35.8799 60.6399 35.9781 60.1836 36.0232C58.7589 36.164 57.859 35.9983 56.9465 35.4425L56.7127 35.2999V34.6486V33.9805L57.2858 33.51C58.4574 32.5468 58.9087 31.5854 58.9319 30.028C58.9363 29.7323 58.9407 29.5113 58.9595 29.3672C58.9752 29.2469 58.9978 29.2292 58.987 29.2297ZM34.1501 30.533L34.1235 32.7742C34.1167 33.3402 34.1163 33.8716 34.1206 34.273C34.1227 34.4737 34.1265 34.6416 34.1311 34.7663C34.1333 34.8286 34.1356 34.8802 34.1387 34.9206C34.1417 34.9611 34.1378 34.9757 34.1539 35.0265L34.247 35.322H44.7034C48.9958 35.322 51.5653 35.3178 53.0755 35.3043C53.8306 35.2976 54.3202 35.2889 54.6323 35.2764C54.7883 35.2701 54.8992 35.2629 54.9839 35.2536C55.0263 35.249 55.0618 35.2439 55.0999 35.2353C55.138 35.2266 55.1841 35.226 55.2538 35.161C55.3224 35.0971 55.3185 35.066 55.3289 35.028C55.3394 34.9899 55.3463 34.9489 55.3527 34.8986C55.3654 34.7979 55.374 34.6626 55.3802 34.4825C55.3926 34.1225 55.3941 33.5865 55.3859 32.8338L55.3612 30.533H44.7557L34.1501 30.533ZM34.6329 30.9094H44.7557H54.8784L54.8994 32.8367C54.9075 33.5876 54.9058 34.1215 54.8937 34.4722C54.8876 34.6476 54.8796 34.7777 54.8689 34.8618C54.8675 34.8723 54.8664 34.8748 54.865 34.8839C54.8047 34.8893 54.7311 34.8951 54.6065 34.9001C54.3089 34.912 53.8222 34.9213 53.0697 34.928C51.5649 34.9414 48.9954 34.9457 44.7033 34.9457H34.6291L34.6272 34.9376C34.6366 34.9675 34.6269 34.9328 34.6243 34.8986C34.6218 34.8644 34.6189 34.8154 34.6167 34.7553C34.6123 34.635 34.6093 34.4693 34.6072 34.2701C34.603 33.8718 34.6034 33.342 34.6101 32.7779L34.6329 30.9094ZM54.906 38.227C54.714 38.2481 54.5242 38.3055 54.3519 38.4004C53.8065 38.7008 53.5697 39.2179 53.5697 39.9514C53.5697 40.4776 53.6197 40.68 53.8197 40.9805C54.0986 41.3997 54.5618 41.7207 55.0761 41.7207C55.318 41.7207 55.54 41.6407 55.7433 41.5348C55.968 41.4177 56.1903 41.2134 56.3335 41.0158C56.4337 40.8776 56.5048 40.7528 56.5407 40.5976C56.5766 40.4424 56.5825 40.2643 56.5825 39.983C56.5825 39.4425 56.5346 39.2252 56.3534 38.9407C56.1446 38.6128 55.8375 38.3772 55.4743 38.2733C55.2928 38.2213 55.098 38.2058 54.906 38.227ZM34.5217 38.2276C33.9816 38.2276 33.5239 38.5016 33.2443 38.9406C33.0632 39.2251 33.0162 39.4424 33.0162 39.9829C33.0162 40.2642 33.0212 40.4423 33.0571 40.5975C33.093 40.7527 33.1641 40.8775 33.2643 41.0157C33.4081 41.2142 33.6358 41.4208 33.863 41.5398C34.1965 41.7144 34.5919 41.7495 34.9361 41.6405C35.2802 41.5315 35.5673 41.2978 35.7829 40.9738C35.9783 40.6801 36.0281 40.4743 36.0281 39.9513C36.0281 39.4433 35.9792 39.222 35.8 38.9406C35.5205 38.5016 35.0618 38.2276 34.5217 38.2276ZM34.5217 38.604C34.8614 38.604 35.1353 38.7495 35.3628 39.1067C35.5189 39.3519 35.5415 39.4572 35.5415 39.9513C35.5415 40.462 35.5261 40.5371 35.3504 40.8011C35.1723 41.0688 34.9538 41.2288 34.7517 41.2928C34.5496 41.3568 34.358 41.3445 34.1358 41.2282C34.0277 41.1716 33.7848 40.9641 33.6891 40.832C33.5996 40.7084 33.5616 40.6415 33.5361 40.5313C33.5106 40.4211 33.5028 40.2593 33.5028 39.983C33.5028 39.4545 33.5219 39.356 33.6806 39.1068C33.9081 38.7495 34.1819 38.604 34.5217 38.604ZM55.3052 38.626C55.5257 38.6891 55.7514 38.8463 55.9172 39.1068C56.0759 39.356 56.0959 39.4545 56.0959 39.983C56.0959 40.2593 56.0872 40.4211 56.0617 40.5313C56.0362 40.6415 55.9982 40.7084 55.9087 40.832C55.8123 40.9649 55.5724 41.1697 55.4715 41.2223C55.3493 41.2859 55.0934 41.3443 55.0761 41.3443C54.8726 41.3443 54.4685 41.1336 54.2521 40.8084C54.0707 40.5358 54.0563 40.4655 54.0563 39.9514C54.0563 39.2761 54.2429 38.9224 54.6342 38.7069C54.8645 38.58 55.0847 38.5629 55.3052 38.626ZM44.7994 40.2424C42.861 40.2424 42.4238 40.2625 41.6231 40.3909C40.0343 40.6458 39.1355 41.0762 38.3813 41.9537C37.592 42.872 37.2891 43.811 37.3444 45.1292C37.3727 45.8042 37.4232 46.0639 37.5972 46.367C37.8122 46.7416 38.0814 47.0168 38.5039 47.1837C38.9264 47.3506 39.468 47.4129 40.2574 47.4461C41.8284 47.5123 47.3755 47.5125 48.9973 47.4513V47.463L49.2558 47.4513C50.096 47.4114 50.6548 47.3491 51.0863 47.1837C51.5178 47.0182 51.7849 46.7434 52.0006 46.367C52.1724 46.0672 52.2259 45.8021 52.2544 45.1608C52.3133 43.8326 52.0153 42.8723 51.2526 41.9904C50.4736 41.0896 49.5541 40.6447 47.968 40.3902C47.1744 40.2628 46.7333 40.2424 44.7994 40.2424ZM44.7994 40.6188C46.7293 40.6188 47.0989 40.6348 47.8692 40.7585C49.3871 41.0021 50.1219 41.3605 50.8478 42.1999C51.5538 43.0164 51.8246 43.8676 51.7678 45.1476C51.7398 45.7779 51.7026 45.9579 51.5558 46.2141C51.3618 46.5528 51.19 46.7246 50.8706 46.847C50.5512 46.9695 50.0468 47.0367 49.2264 47.0756C47.8985 47.1387 41.8346 47.1359 40.283 47.0705C39.5167 47.0382 39.0371 46.9716 38.7253 46.8485C38.4135 46.7254 38.2344 46.5494 38.042 46.2141C37.8923 45.9533 37.8579 45.7827 37.83 45.1174C37.7768 43.8477 38.048 43.0212 38.7862 42.1625C39.4865 41.3476 40.1982 41.0044 41.722 40.7599C42.4999 40.6351 42.865 40.6188 44.7994 40.6188ZM60.6721 44.5522C60.3018 44.5809 59.9448 44.6533 59.6343 44.7675C59.4694 44.8282 59.2628 44.9415 59.0118 45.091C58.7608 45.2405 58.479 45.4229 58.222 45.604C57.6187 46.0292 57.2332 46.2661 56.8781 46.3986C56.523 46.5312 56.1807 46.5719 55.6083 46.5883C54.6009 46.6171 54.3128 46.558 53.6942 46.1928C53.5572 46.1119 53.4579 46.0572 53.3521 46.0216C53.2992 46.0037 53.2441 45.9782 53.1268 46.0002C53.0682 46.0112 52.9961 46.0473 52.9596 46.0929C52.923 46.1384 52.9168 46.1808 52.9168 46.2119C52.9168 46.2741 52.8349 46.4934 52.6944 46.7074C52.5539 46.9214 52.3613 47.147 52.185 47.2962C51.6875 47.7172 51.1565 47.9243 50.2756 48.029C50.138 48.0454 49.4406 48.0624 48.7483 48.0768L48.5944 48.4576C49.402 48.4446 50.0949 48.4313 50.3498 48.401C51.3019 48.2878 51.9793 48.0286 52.5442 47.5505C52.7644 47.3642 52.9698 47.1186 53.1278 46.8779C53.2307 46.7212 53.2602 46.585 53.3074 46.4442C53.3437 46.4632 53.3514 46.4641 53.3987 46.492C54.0671 46.8866 54.5801 46.9946 55.6264 46.9647C56.2225 46.9476 56.6558 46.8993 57.0891 46.7375C57.5224 46.5757 57.9377 46.3134 58.5499 45.8819C58.7957 45.7086 59.0699 45.5319 59.3092 45.3894C59.5486 45.2469 59.7673 45.1351 59.8434 45.1071C60.3413 44.924 61.0702 44.8649 61.6881 44.966L62.0806 45.03L62.4019 45.6856C63.1533 47.2198 63.7209 48.8907 64.028 50.4717C64.1848 51.2789 64.3112 53.1165 64.2599 53.7979L64.2333 54.1433H63.8588C62.9607 54.1433 62.2272 54.2866 61.6529 54.6108C61.0787 54.9351 60.6818 55.4303 60.4155 56.0883C60.2526 56.4909 60.1717 56.8319 59.87 58.3751C59.8051 58.7071 59.7379 58.8473 59.6143 58.9272C59.4907 59.007 59.2209 59.0664 58.6877 59.1168C57.1937 59.2581 56.1718 59.6132 55.6929 60.2547C55.2141 60.8962 55.3311 61.7549 55.9267 62.8179L56.1254 63.1722L55.788 63.2685C55.1052 63.463 54.6615 63.5671 54.4203 63.5919C54.2998 63.6043 54.2369 63.5944 54.2284 63.5913C54.2198 63.5887 54.2368 63.6071 54.2284 63.5847C54.2375 63.6086 54.2227 63.5649 54.2112 63.5207C54.1997 63.4766 54.1841 63.4136 54.1647 63.3355C54.1258 63.1792 54.0723 62.9604 54.0078 62.6945C53.879 62.1627 53.7071 61.4437 53.5231 60.6672C53.2874 59.6718 53.1264 58.9589 53.0327 58.4884C52.9859 58.2532 52.9566 58.0784 52.9424 57.9628C52.9369 57.9179 52.9349 57.8902 52.9339 57.8651C52.9631 57.8505 53.0003 57.8335 53.0498 57.8136C53.1626 57.7683 53.3144 57.7165 53.4699 57.6725C53.6996 57.6074 53.8701 57.5502 54.0078 57.4828C54.1456 57.4155 54.2544 57.3297 54.3167 57.2292C54.508 56.9206 54.3372 56.5548 53.9537 56.3604C53.843 56.3043 53.6961 56.2499 53.5345 56.2575C53.373 56.265 53.2217 56.3066 52.95 56.3766C52.8191 56.4102 52.706 56.4351 52.6088 56.4552C52.6067 56.4439 52.6053 56.4388 52.6031 56.4265C52.5805 56.3006 52.5537 56.1282 52.529 55.9421C52.3007 54.2217 51.5789 52.9607 50.2005 51.9C49.5724 51.4166 49.2497 51.2342 48.5601 50.9716C48.2377 50.8488 47.9667 50.7976 47.6791 50.7158L47.5346 51.0715C47.7978 51.1481 48.038 51.1923 48.3443 51.309C49.011 51.5628 49.2419 51.6938 49.8564 52.1668C51.1599 53.1699 51.824 54.3202 52.0443 55.9803C52.0695 56.1702 52.0975 56.3463 52.1213 56.4787C52.1332 56.5449 52.1434 56.5997 52.1536 56.6426C52.1587 56.6641 52.1637 56.6823 52.1697 56.7007C52.1726 56.7099 52.1759 56.7186 52.182 56.7315C52.1882 56.7445 52.1792 56.7574 52.2429 56.8065C52.3043 56.854 52.3501 56.857 52.3778 56.8609C52.4055 56.8649 52.4217 56.8648 52.4367 56.8647C52.4669 56.8645 52.4885 56.8621 52.5118 56.8595C52.5585 56.8539 52.6098 56.8447 52.6696 56.8331C52.7891 56.8098 52.941 56.7751 53.1039 56.7331C53.3723 56.664 53.5152 56.6354 53.5639 56.6331C53.6126 56.6306 53.5917 56.627 53.6865 56.675C53.9115 56.789 53.9631 56.9289 53.8776 57.0668C53.8585 57.0977 53.8343 57.1226 53.7483 57.1646C53.6623 57.2066 53.5174 57.2581 53.3026 57.319C53.1278 57.3685 52.9614 57.4253 52.8255 57.4799C52.7575 57.5072 52.6972 57.5335 52.6449 57.5608C52.5925 57.5881 52.5494 57.6037 52.4947 57.6711C52.4172 57.7667 52.4455 57.7911 52.4453 57.8365C52.4451 57.8818 52.4497 57.9334 52.4576 57.9982C52.4735 58.1277 52.5041 58.3068 52.5517 58.5458C52.6469 59.0237 52.8079 59.7386 53.044 60.7356C53.2281 61.5125 53.4007 62.2311 53.5297 62.7636C53.5942 63.0299 53.6483 63.2495 53.6874 63.4068C53.7071 63.4855 53.723 63.549 53.735 63.595C53.7469 63.6409 53.7467 63.6512 53.7616 63.6905C53.7988 63.7887 53.902 63.8927 54.0391 63.9375C54.1762 63.9824 54.3195 63.9824 54.4849 63.9655C54.8155 63.9315 55.2638 63.8187 55.9561 63.6214L56.7763 63.3877L56.3733 62.6681C55.8065 61.6565 55.7486 60.9336 56.1148 60.443C56.481 59.9524 57.3236 59.6249 58.7465 59.4904C59.2979 59.4382 59.6576 59.3896 59.9259 59.2162C60.1942 59.0428 60.2818 58.784 60.3508 58.4311C60.6521 56.8896 60.7257 56.5801 60.8792 56.2009C61.1254 55.5927 61.4688 55.1813 61.9398 54.9153C62.4109 54.6493 63.0269 54.5198 63.8587 54.5198H64.6932L64.7455 53.82C64.8021 53.0678 64.6755 51.2742 64.5088 50.4159C64.1961 48.8062 63.6212 47.1128 62.857 45.5527L62.4407 44.7044L61.7887 44.5978C61.4256 44.5383 61.0424 44.5234 60.6721 44.5522ZM53.4034 46.2119C53.4034 46.2265 53.4013 46.2556 53.373 46.2913C53.3726 46.292 53.3705 46.292 53.3701 46.2929C53.3737 46.2675 53.4034 46.237 53.4034 46.2119ZM44.8146 51.3898C44.1957 51.4096 43.5809 51.4784 43.1143 51.5926C40.5438 52.2223 38.7239 53.7321 38.4963 55.4819C38.4333 55.9661 38.5573 56.6416 38.7909 57.0932C38.8534 57.214 38.9395 57.3336 39.0931 57.4137C39.2468 57.4937 39.4296 57.5398 39.7394 57.6187C39.926 57.6663 40.0976 57.7087 40.226 57.7386C40.2902 57.7535 40.3434 57.7647 40.3847 57.7731C40.4054 57.7773 40.4229 57.7812 40.4418 57.7841C40.4512 57.7857 40.4599 57.787 40.4769 57.7885C40.4855 57.7892 40.4958 57.7901 40.5159 57.7892C40.5259 57.789 40.5574 57.7848 40.5577 57.7847C40.558 57.7847 40.6459 57.7554 40.6461 57.7554C40.6462 57.7553 40.7078 57.7076 40.7079 57.7076C40.7079 57.7075 40.7363 57.6658 40.7364 57.6657C40.7365 57.6655 40.7495 57.6261 40.7506 57.6142C40.753 57.5905 40.7503 57.5803 40.7488 57.5716C40.7457 57.5542 40.7431 57.5459 40.7402 57.5378C40.7345 57.5214 40.7279 57.5081 40.7203 57.4914C40.7051 57.4581 40.6841 57.4153 40.6576 57.3635C40.6044 57.2601 40.5303 57.1218 40.4456 56.9703C39.826 55.8619 40.0208 54.9153 41.0691 53.9683C41.4441 53.6295 42.494 53.0722 43.1172 52.8899C44.4672 52.495 45.7252 52.5443 46.7915 52.8796L46.935 52.529C45.7536 52.1672 44.3783 52.1186 42.9452 52.5378C42.2001 52.7558 41.1794 53.2898 40.6994 53.7235C39.5609 54.7519 39.3212 55.907 39.9989 57.1195C40.0409 57.1946 40.0681 57.2473 40.1035 57.3128C40.0304 57.2948 39.9732 57.2821 39.8915 57.2613C39.587 57.1838 39.4284 57.1341 39.365 57.1011C39.3016 57.0681 39.2959 57.0568 39.2424 56.9534C39.0533 56.5879 38.9301 55.9112 38.981 55.5192C39.1854 53.9476 40.8412 52.5448 43.2617 51.9519C44.0575 51.757 45.6019 51.707 46.436 51.8505C46.6887 51.894 46.8883 52.0015 47.1222 52.0688L47.2657 51.7153C47.0184 51.6444 46.8077 51.5288 46.5415 51.483C46.0567 51.3995 45.4335 51.37 44.8146 51.3898ZM47.2733 51.7176L47.1298 52.0712C49.2305 52.6784 50.5943 54.1735 50.7157 56.2714L50.7556 56.9609L50.5788 57.0175C50.4012 57.0748 50.2794 57.1151 50.2034 57.1343C50.1988 57.1202 50.2017 57.1295 50.1929 57.0638C50.1786 56.9562 50.1691 56.7909 50.154 56.5661C50.1237 56.1146 50.0266 55.5302 49.9221 55.2173C49.512 53.9898 48.5637 53.0786 47.3142 52.5997C47.2018 52.5566 47.0604 52.5666 46.9435 52.5306L46.8009 52.882C46.8935 52.9113 47.0082 52.9029 47.0975 52.9371C48.2157 53.3657 49.0712 54.1753 49.4507 55.3114C49.5353 55.5648 49.6399 56.161 49.6683 56.5852C49.6832 56.8077 49.691 56.9732 49.7082 57.1027C49.7255 57.2323 49.7318 57.337 49.8584 57.4394C49.9217 57.4906 50.022 57.522 50.1036 57.5261C50.1852 57.5302 50.2512 57.5184 50.3165 57.5034C50.4471 57.4732 50.583 57.4246 50.767 57.3652L51.2565 57.2064L51.2013 56.2545C51.0728 54.0335 49.5694 52.3783 47.2733 51.7176ZM44.9476 53.2848C44.4286 53.303 43.9104 53.3898 43.427 53.5332C42.4602 53.82 41.6231 54.3355 41.2201 55.0166C41.0294 55.339 40.9404 55.6396 40.9978 55.9832C41.0551 56.3268 41.2435 56.7054 41.5661 57.2402C41.7086 57.4764 41.8674 57.714 42.0109 57.9106C42.1543 58.1071 42.2639 58.2511 42.3815 58.3472C42.5125 58.4542 42.5292 58.4658 42.5422 58.5148C42.5551 58.5637 42.5489 58.699 42.5194 58.9771C42.4877 59.2752 42.3448 60.3419 42.2029 61.3308C42.1318 61.8261 42.0673 62.2873 42.0204 62.6319C41.9969 62.8042 41.9775 62.947 41.9643 63.0509C41.9577 63.1029 41.9527 63.145 41.9491 63.1766C41.9455 63.2082 41.9434 63.2166 41.9434 63.2494C41.9434 63.3249 41.9918 63.3965 42.047 63.4398C42.1022 63.483 42.1618 63.5075 42.2228 63.5272C42.287 63.548 42.3684 63.5522 42.4414 63.5632L42.5868 63.2067C42.5288 63.1992 42.467 63.1922 42.4367 63.184C42.4398 63.1569 42.4439 63.1281 42.449 63.0877C42.462 62.9853 42.4808 62.8427 42.5041 62.6709C42.5509 62.3273 42.6156 61.8666 42.6866 61.372C42.8288 60.3813 42.9713 59.3249 43.005 59.008C43.0346 58.7297 43.0577 58.5847 43.0193 58.4391C42.9809 58.2935 42.8667 58.1961 42.7351 58.0885C42.7077 58.066 42.5711 57.9129 42.4348 57.7261C42.2985 57.5393 42.1439 57.3075 42.0071 57.0807C41.6916 56.5578 41.5261 56.2075 41.4806 55.9347C41.435 55.662 41.4938 55.4592 41.663 55.1732C41.9974 54.608 42.7295 54.1431 43.6009 53.8846C44.4723 53.6262 45.4725 53.5764 46.3115 53.8038C46.34 53.8115 46.3655 53.8473 46.3942 53.8567L46.5462 53.4818C46.5204 53.4739 46.4981 53.4557 46.4721 53.4487C45.9862 53.3171 45.4666 53.2665 44.9476 53.2848ZM46.5567 53.4862L46.4037 53.8625C47.1848 54.1227 48.0098 54.9486 48.2113 55.8083C48.2624 56.0262 48.2948 56.4393 48.2978 56.8124C48.2993 56.9989 48.2937 57.1774 48.2817 57.3188C48.2697 57.4603 48.2393 57.5786 48.238 57.5813C48.2299 57.5976 48.2249 57.61 48.1439 57.6474C48.0628 57.6848 47.914 57.7343 47.6858 57.7944C47.5022 57.8427 47.3172 57.9037 47.1592 57.9657C47.0013 58.0276 46.88 58.0766 46.7772 58.1612L46.5149 58.3766L46.6869 59.7424L46.8399 60.956L46.3932 61.4646C45.541 62.435 44.5798 63.0097 43.6342 63.1648C43.2888 63.2215 42.9311 63.2374 42.68 63.2207C42.6499 63.2188 42.642 63.2141 42.6153 63.2111L42.4709 63.5684C42.5278 63.5761 42.575 63.5921 42.6382 63.5963C42.9517 63.6171 43.3429 63.5972 43.7349 63.5331C44.8515 63.3498 45.898 62.6972 46.7952 61.6756L47.3408 61.0552L47.1706 59.7063L47.0205 58.5104L47.1317 58.4192C47.1314 58.4194 47.2433 58.354 47.3788 58.3009C47.5143 58.2477 47.6834 58.1928 47.8426 58.1509C48.0838 58.0874 48.2552 58.0344 48.3929 57.9708C48.5305 57.9073 48.642 57.8192 48.6932 57.715C48.746 57.6075 48.7542 57.4976 48.7673 57.3431C48.7805 57.1886 48.786 57.0037 48.7845 56.8101C48.7813 56.4231 48.7532 56.0095 48.6904 55.7414C48.4568 54.7448 47.5864 53.8043 46.5567 53.4862ZM38.4706 57.9819C38.3685 57.9825 38.3108 58.0075 38.253 58.0341C38.1949 58.0607 38.1425 58.0936 38.0952 58.1377C38.0264 58.2019 38.0463 58.2027 38.0382 58.2215C38.0301 58.2403 38.0227 58.2602 38.0144 58.284C37.9979 58.3316 37.9785 58.394 37.9555 58.4721C37.9095 58.6284 37.85 58.8459 37.7806 59.1102C37.6418 59.6388 37.4642 60.3544 37.2798 61.1309C36.9769 62.4057 36.8122 63.1122 36.738 63.5177C36.701 63.7204 36.6849 63.8459 36.6896 63.9462C36.6919 63.9964 36.6992 64.042 36.7228 64.0903C36.7465 64.1386 36.7961 64.1881 36.8454 64.216C36.9728 64.288 37.0629 64.2937 37.2189 64.3226C37.375 64.3515 37.5725 64.3808 37.7987 64.4093C38.2509 64.4663 38.8183 64.5199 39.3792 64.5556C39.7861 64.5815 40.1868 64.6081 40.2526 64.6129C40.4454 64.627 40.5689 64.579 40.7022 64.5012C40.8313 64.4257 40.8438 64.3502 40.878 64.2483C40.9122 64.1464 40.9438 64.0087 40.9816 63.808C41.0572 63.4067 41.153 62.7571 41.299 61.705C41.3977 60.9942 41.483 60.3383 41.5404 59.8534C41.5691 59.6109 41.5908 59.4118 41.6041 59.2682C41.6108 59.1964 41.6152 59.1386 41.6174 59.0948C41.6186 59.0728 41.6196 59.0549 41.6193 59.0374C41.6191 59.0287 41.6186 59.0205 41.6174 59.0095C41.6162 58.9985 41.6202 58.9901 41.6003 58.9499C41.5641 58.8769 41.5336 58.8732 41.5138 58.861C41.494 58.8489 41.4778 58.8414 41.4615 58.8338C41.429 58.8187 41.3949 58.8046 41.3532 58.789C41.2697 58.7577 41.1594 58.7204 41.0291 58.678C40.7684 58.5932 40.4268 58.4894 40.0787 58.3876C39.7306 58.2858 39.3774 58.1863 39.0941 58.112C38.9524 58.0748 38.8285 58.0439 38.7291 58.0215C38.6301 57.9993 38.5917 57.9809 38.4716 57.9819H38.4706ZM51.1272 57.9819C51.0062 57.9809 50.969 57.9992 50.8696 58.0216C50.7702 58.0439 50.6463 58.0748 50.5047 58.112C50.2213 58.1863 49.8672 58.2859 49.5191 58.3876C49.171 58.4894 48.8294 58.5932 48.5687 58.678C48.4383 58.7204 48.3291 58.7576 48.2456 58.789C48.2038 58.8046 48.1688 58.8187 48.1363 58.8338C48.12 58.8414 48.1047 58.8489 48.0849 58.861C48.0651 58.8731 48.0337 58.8769 47.9975 58.95C47.9776 58.9901 47.9816 58.9985 47.9804 59.0095C47.9791 59.0204 47.9796 59.0287 47.9794 59.0374C47.9791 59.0549 47.9792 59.0728 47.9804 59.0948C47.9826 59.1386 47.987 59.1964 47.9937 59.2682C48.007 59.4118 48.0296 59.6109 48.0583 59.8534C48.1157 60.3383 48.2001 60.9942 48.2988 61.705C48.4476 62.7777 48.5436 63.4273 48.6191 63.8242C48.6568 64.0227 48.6885 64.1576 48.7236 64.2579C48.7587 64.3582 48.7841 64.4362 48.9004 64.5049C48.9643 64.5426 49.0611 64.5778 49.1665 64.5916C49.2718 64.6054 49.3895 64.6062 49.5562 64.599C49.8894 64.5846 50.4242 64.5351 51.3819 64.4424C51.692 64.4124 51.9896 64.3763 52.224 64.341C52.3411 64.3233 52.442 64.3058 52.5243 64.2888C52.6065 64.2717 52.6475 64.2761 52.7486 64.2189C52.7925 64.1941 52.8429 64.1487 52.8693 64.1006C52.8957 64.0525 52.9049 64.0058 52.9083 63.9558C52.915 63.8558 52.8999 63.733 52.8636 63.5324C52.7909 63.131 52.6265 62.4253 52.319 61.1309C52.1345 60.3544 51.956 59.6388 51.8172 59.1102C51.7478 58.8459 51.6883 58.6284 51.6423 58.4722C51.6194 58.3941 51.5999 58.3316 51.5834 58.284C51.5751 58.2602 51.5677 58.2403 51.5596 58.2215C51.5515 58.2027 51.5724 58.2019 51.5036 58.1377C51.4562 58.0936 51.4039 58.0607 51.3458 58.0341C51.2877 58.0074 51.2295 57.9828 51.1272 57.9819ZM38.4944 58.3619C38.4773 58.3638 38.519 58.3665 38.5932 58.3832C38.681 58.4029 38.7997 58.4324 38.9373 58.4685C39.2125 58.5406 39.5627 58.6384 39.9067 58.739C40.2506 58.8395 40.5892 58.943 40.8409 59.0249C40.9616 59.0641 41.0589 59.0978 41.128 59.1234C41.1257 59.1571 41.1232 59.1902 41.1185 59.241C41.1055 59.3801 41.0843 59.5785 41.0557 59.8195C40.9987 60.3016 40.9137 60.9554 40.8153 61.6645C40.6694 62.7155 40.574 63.3648 40.5007 63.7536C40.4641 63.948 40.432 64.0784 40.4066 64.1542C40.3812 64.2301 40.338 64.2417 40.4085 64.2005C40.3832 64.2153 40.2548 64.2349 40.2982 64.238C40.2147 64.2319 39.8265 64.2066 39.4191 64.1807C38.8716 64.1459 38.3131 64.0924 37.8766 64.0373C37.6583 64.0098 37.4705 63.982 37.3329 63.9565C37.226 63.9367 37.1895 63.9224 37.1771 63.9219C37.1755 63.868 37.1854 63.7584 37.2198 63.5698C37.291 63.1809 37.4551 62.4735 37.7578 61.1992C37.9418 60.4247 38.1198 59.7104 38.2577 59.1852C38.3266 58.9225 38.3853 58.707 38.4297 58.5559C38.4519 58.4804 38.4713 58.4209 38.4848 58.3817C38.4879 58.373 38.4891 58.3698 38.4915 58.3634C38.4926 58.3627 38.4933 58.3628 38.4944 58.3619ZM51.1034 58.3619C51.1049 58.3625 51.1059 58.3635 51.1072 58.3644C51.1097 58.3708 51.111 58.3737 51.1139 58.3821C51.1275 58.4213 51.1459 58.4808 51.1681 58.5563C51.2125 58.7073 51.2711 58.9229 51.3401 59.1855C51.478 59.7108 51.656 60.425 51.84 61.1996C52.1474 62.4935 52.3122 63.2011 52.3817 63.5849C52.4151 63.7692 52.4228 63.8723 52.4207 63.9223C52.4043 63.9278 52.4214 63.9213 52.3988 63.926C52.3339 63.9395 52.2408 63.955 52.1308 63.9716C51.9108 64.0048 51.6209 64.0404 51.3211 64.0694C50.3647 64.1619 49.8289 64.2109 49.5296 64.2237C49.3799 64.2302 49.2909 64.2263 49.2482 64.2209C49.2056 64.2153 49.2133 64.2164 49.196 64.2062C49.2502 64.2383 49.2183 64.232 49.1931 64.1599C49.1679 64.0878 49.1364 63.9614 49.1 63.7696C49.0271 63.3859 48.9312 62.7368 48.7825 61.6651C48.6841 60.9559 48.5991 60.3021 48.5421 59.82C48.5136 59.579 48.4923 59.3806 48.4794 59.2415C48.4746 59.1907 48.4731 59.1576 48.4708 59.1239C48.5398 59.0983 48.6366 59.0645 48.7569 59.0254C49.0086 58.9436 49.3481 58.8408 49.6921 58.7402C50.036 58.6397 50.3854 58.5411 50.6606 58.469C50.7981 58.4329 50.9178 58.4034 51.0055 58.3837C51.0797 58.367 51.1201 58.3642 51.1034 58.3624L51.1034 58.3619ZM47.3189 62.5106C47.2525 62.5173 47.2247 62.5311 47.1944 62.5437C47.1338 62.5689 47.0807 62.5991 47.0176 62.6385C46.8916 62.7173 46.7357 62.8306 46.5671 62.9656C45.9033 63.4974 45.2174 63.8673 44.5789 64.0521C44.0549 64.2037 42.9199 64.3055 42.4576 64.2513L42.2057 64.2219L41.7552 65.3348C41.8095 65.3799 41.8588 65.4343 41.9234 65.4494C42.0789 65.4859 42.2364 65.4834 42.468 65.4832C42.6997 65.4831 42.9791 65.4752 43.2635 65.4612C43.8324 65.4332 44.3928 65.3913 44.6948 65.3208C45.4623 65.1415 46.3398 64.7595 47.0233 64.313L47.7029 63.869L47.6744 63.2773C47.6675 63.1372 47.6573 63.0016 47.6459 62.8928C47.6401 62.8384 47.6341 62.7909 47.6278 62.7517C47.6215 62.7125 47.6231 62.6941 47.5993 62.6414C47.5795 62.5976 47.522 62.5467 47.4615 62.526C47.401 62.5054 47.3521 62.5073 47.3189 62.5106ZM47.1697 63.0443C47.1764 63.124 47.1833 63.2015 47.1877 63.292L47.2077 63.7L46.7087 64.0256C46.0792 64.4369 45.2343 64.8017 44.5542 64.9606C44.3861 64.9999 43.7849 65.0584 43.2322 65.0856C42.9558 65.0991 42.684 65.1067 42.4671 65.1069C42.2798 65.107 42.1596 65.0948 42.1192 65.0914C42.1199 65.0847 42.1193 65.0915 42.1211 65.0826C42.1412 64.983 42.1799 64.7931 42.2066 64.66L42.218 64.6034L42.3844 64.6232C43.0189 64.6977 44.0984 64.5934 44.7499 64.4049C45.4799 64.1937 46.2165 63.7884 46.9178 63.2266C47.0156 63.1482 47.0884 63.1015 47.1697 63.0443ZM41.8113 64.1755L41.7258 64.6026C41.6991 64.7355 41.6613 64.9253 41.6412 65.0246C41.6248 65.1053 41.617 65.1843 41.6621 65.2708C41.6734 65.2925 41.7089 65.2966 41.7277 65.3156L42.1744 64.2182L41.8113 64.1755ZM41.5972 66.254C41.0786 66.1692 40.209 65.8571 39.7715 65.5989C39.4536 65.4112 39.2922 65.3712 38.5956 65.307C31.4178 64.6455 26.5541 62.1512 24.7409 58.2017C23.7525 56.0487 23.5341 52.5811 24.2022 49.6496C24.6277 47.7827 25.482 45.6695 26.5649 43.805C26.8589 43.2989 26.8928 43.0145 26.6593 43.0145C26.6045 43.0145 26.152 43.0935 25.6538 43.19C24.885 43.3388 24.6008 43.3618 23.7761 43.3415C22.8855 43.3196 22.7555 43.2991 22.2219 43.0959C20.4463 42.4198 19.3602 40.2933 19.2199 37.2179C19.1654 36.0212 19.2089 35.8403 19.5687 35.7705C19.6764 35.7496 21.0686 35.6022 22.6624 35.443C24.2562 35.2837 25.6011 35.1219 25.651 35.0833C25.7066 35.0403 25.7493 34.4822 25.7612 33.6418C25.7782 32.4492 25.8058 32.2062 25.9731 31.7769C26.6991 29.9133 28.7034 28.3715 31.2383 27.7265C31.9133 27.5548 32.1886 27.5797 32.4022 27.8317C32.5405 27.995 32.5393 28.0409 32.3815 28.6222C32.1572 29.4489 32.1522 30.7629 32.3714 31.3148C32.5151 31.6766 32.5448 31.7047 32.7624 31.6853L32.9979 31.6643L33.0415 30.7739C33.0748 30.0925 33.1167 29.859 33.2201 29.7792C33.3084 29.7112 33.6016 29.6603 34.0648 29.6327C34.4703 29.6085 34.7908 29.5573 34.8127 29.5131C34.8338 29.4706 34.8183 28.9975 34.7784 28.4619C34.7384 27.9262 34.703 27.3212 34.6996 27.1174C34.6963 26.9137 34.6619 26.7084 34.6233 26.6613C34.5846 26.6142 34.301 26.5281 33.9932 26.4699C33.0554 26.2929 32.0682 25.8768 31.343 25.3529C28.1343 23.0354 28.8991 19.0199 32.8237 17.5784C34.3259 17.0266 35.9446 16.9493 37.5015 17.3549L38.0235 17.4909L38.7767 16.9315C39.9567 16.0551 41.1992 15.5002 42.6653 15.1949C43.5601 15.0086 45.3976 14.9403 46.348 15.0581C48.7329 15.3536 50.8965 16.4021 52.2113 17.8995C52.6 18.3423 52.6624 18.3567 53.479 18.1922C55.6093 17.763 57.9156 18.6101 58.8894 20.1793C59.4317 21.0532 59.5613 21.8648 59.297 22.7321C59.0265 23.6196 58.238 24.4765 57.2027 25.0082C56.6928 25.27 55.6833 25.5646 55.2888 25.5667C54.713 25.5698 54.7136 25.568 54.4976 27.6313C54.3655 28.8928 54.3298 29.5308 54.3888 29.5761C54.4372 29.6132 54.7719 29.6367 55.1328 29.6283C55.9034 29.6105 56.353 29.7257 56.4236 29.959C56.4495 30.0448 56.4803 30.5091 56.492 30.9907C56.5127 31.8446 56.5182 31.8669 56.7113 31.8881C56.872 31.9057 56.9407 31.8549 57.0755 31.6187C57.4713 30.9249 57.5217 29.7527 57.2056 28.5896C57.0565 28.0407 57.0559 27.9972 57.1951 27.8329C57.4167 27.5713 57.6829 27.5539 58.4472 27.7508C60.882 28.3781 62.9181 29.9584 63.6217 31.7672C63.793 32.2077 63.8199 32.4418 63.837 33.6418C63.8491 34.4933 63.8914 35.0401 63.9484 35.0842C63.9989 35.1232 65.3645 35.2859 66.983 35.4456C68.6015 35.6053 70.0128 35.7661 70.1193 35.8029C70.3995 35.8997 70.4359 36.1082 70.3779 37.2817C70.2284 40.3094 69.1356 42.4261 67.3763 43.096C66.8429 43.2991 66.7126 43.3197 65.8236 43.3415C65.0277 43.3611 64.722 43.3384 64.1234 43.2152C63.7221 43.1326 63.2702 43.0507 63.1192 43.0332C62.6924 42.9837 62.6705 43.1803 63.0333 43.8051C65.2588 47.6366 66.1851 51.691 65.6537 55.2742C65.3343 57.4275 64.6696 58.9467 63.4195 60.3806C62.8635 61.0184 61.5212 62.099 60.6683 62.5955C58.5527 63.827 55.752 64.7017 52.5069 65.1444C51.364 65.3003 48.299 65.4484 48.0477 65.3599C47.9375 65.3211 47.8468 65.2714 47.8461 65.2496C47.8454 65.2278 47.8089 65.1661 47.7652 65.1126C47.7001 65.033 47.5902 65.067 47.1624 65.2991C46.5191 65.6481 45.5381 66.0112 44.8427 66.1577C44.2362 66.2855 42.1654 66.3469 41.5972 66.254ZM44.6249 65.1404C45.3487 64.9713 46.2096 64.5983 46.8662 64.1694L47.4555 63.7845L47.4311 63.2847C47.4176 63.0098 47.3902 62.7484 47.37 62.7038C47.3498 62.659 47.0688 62.8347 46.7424 63.0962C46.0598 63.643 45.3488 64.0305 44.6646 64.2285C44.0768 64.3986 42.9695 64.5016 42.4211 64.4372L42.0148 64.3895L41.9662 64.6313C41.9396 64.7643 41.9013 64.9544 41.8812 65.0538C41.8552 65.1823 41.8877 65.2448 41.9937 65.2696C42.2996 65.3413 44.1548 65.2502 44.6249 65.1404ZM40.5552 64.351C40.6726 64.2824 40.7658 63.788 41.0576 61.6849C41.2546 60.2649 41.3967 59.0646 41.3733 59.0175C41.3342 58.9387 38.6972 58.1677 38.4737 58.1698C38.4197 58.17 38.3335 58.2099 38.2821 58.2578C38.2307 58.3057 37.8871 59.6139 37.5187 61.165C36.9132 63.7141 36.8622 63.9928 36.9886 64.0642C37.1465 64.1535 38.291 64.2979 39.3993 64.3683C39.8065 64.3942 40.2007 64.4198 40.2754 64.4253C40.35 64.4308 40.476 64.3973 40.5552 64.351ZM51.3515 64.2559C51.9614 64.1969 52.5255 64.1118 52.605 64.0669C52.7376 63.9919 52.6944 63.7532 52.0795 61.165C51.7111 59.6139 51.3676 58.3057 51.3162 58.2578C51.2648 58.2099 51.1786 58.1703 51.1245 58.1698C50.9011 58.1679 48.264 58.9387 48.2249 59.0175C48.2015 59.0646 48.3436 60.2649 48.5407 61.6849C48.8382 63.8294 48.9242 64.2817 49.0481 64.355C49.2105 64.4509 49.4373 64.4411 51.3515 64.2559ZM35.4965 63.7393C35.5626 63.6882 35.9091 62.398 36.3023 60.7395C36.9002 58.2172 36.9755 57.8166 36.8675 57.734C36.799 57.6815 36.4887 57.5688 36.1779 57.4834C35.7597 57.3686 35.584 57.2817 35.502 57.1494C35.3626 56.9245 35.4731 56.6722 35.7788 56.5173C35.9872 56.4116 36.0365 56.416 36.7706 56.6065L37.543 56.8068L37.4734 56.5289C37.3618 56.0837 37.3855 55.4431 37.534 54.8871C38.0552 52.9354 40.272 51.303 43.1886 50.7232C43.8925 50.5833 44.2668 50.55 45.1475 50.5488C46.4787 50.5469 47.2629 50.6874 48.4522 51.1403C49.1304 51.3985 49.4071 51.5553 50.0285 52.0335C51.3694 53.0654 52.0625 54.2708 52.2868 55.9612C52.3367 56.3371 52.3943 56.6578 52.4149 56.6737C52.4354 56.6896 52.7108 56.636 53.0269 56.5547C53.567 56.4157 53.6147 56.4135 53.8202 56.5176C54.1244 56.6718 54.2355 56.9247 54.0972 57.148C54.0158 57.2793 53.8313 57.3695 53.3867 57.4954C53.0565 57.589 52.7477 57.713 52.7006 57.7711C52.6401 57.8456 52.812 58.709 53.2839 60.7013C53.6519 62.2548 53.972 63.5761 53.9953 63.6375C54.0868 63.8786 54.4973 63.8365 55.8723 63.4447L56.4507 63.2799L56.1498 62.7429C54.9874 60.6684 55.8004 59.5792 58.7173 59.3034C59.802 59.2008 59.9766 59.088 60.1104 58.4032C60.4119 56.8607 60.4892 56.5357 60.6474 56.1448C61.1599 54.8785 62.1293 54.3311 63.8593 54.3311H64.4633L64.5026 53.8091C64.5566 53.0923 64.4302 51.2764 64.2684 50.4437C63.9585 48.8483 63.387 47.1663 62.6292 45.6192L62.2607 44.867L61.7385 44.7815C61.0664 44.6715 60.2979 44.7313 59.7384 44.9371C59.4974 45.0258 58.8888 45.3883 58.3858 45.7428C57.1703 46.5994 56.7854 46.7431 55.617 46.7766C54.5901 46.806 54.19 46.722 53.5465 46.3421C53.2853 46.1879 53.1602 46.1458 53.1602 46.2121C53.1602 46.4805 52.7614 47.088 52.3649 47.4235C51.8337 47.873 51.2294 48.1061 50.3128 48.215C49.3748 48.3265 40.2295 48.3287 39.3042 48.2176C38.4511 48.1152 37.9339 47.9401 37.4362 47.5853C36.9077 47.2087 36.6498 46.8544 36.4382 46.2145C35.9756 44.8156 36.4013 42.8024 37.4138 41.6C38.4403 40.3811 39.653 39.8204 41.8815 39.5346C43.3032 39.3523 46.5451 39.3684 47.9365 39.5648C48.4884 39.6427 49.004 39.7254 49.0821 39.7486C49.1983 39.7831 49.2495 39.7048 49.3632 39.318C49.6443 38.3623 49.5013 37.7977 48.9209 37.5709C48.5878 37.4407 47.6738 37.2617 46.2797 37.0536C45.1375 36.8831 44.196 36.6441 43.6346 36.3823L43.1233 36.1438H38.2839H33.4446L33.243 35.9974C33.0499 35.857 33.0415 35.8091 33.0415 34.8505V33.8502L32.5399 33.4309C31.8907 32.8882 31.5065 32.4164 31.2531 31.8505C30.9839 31.2494 30.8292 30.3091 30.9 29.7046C30.9471 29.3026 30.9321 29.2005 30.8122 29.1078C30.6367 28.9721 30.5611 28.9925 29.8111 29.3781C28.5649 30.0189 27.5684 31.0722 27.1927 32.1457C26.9499 32.8395 26.9307 34.2998 27.154 35.0887C27.2917 35.5753 27.2924 35.6296 27.1631 35.7823C27.0859 35.8734 26.9367 35.9746 26.8314 36.0072C26.7262 36.0399 25.3075 36.1936 23.6789 36.3489C21.6998 36.5376 20.6751 36.6624 20.5892 36.7251C20.4328 36.8393 20.4496 37.5578 20.6348 38.6699C20.9503 40.5645 21.7277 41.8362 22.8009 42.2132C23.2564 42.3732 24.5641 42.3855 25.3063 42.2367C26.5247 41.9926 27.6919 41.4267 28.7172 40.5831C29.073 40.2903 29.4255 40.0508 29.5004 40.0508C29.8649 40.0508 30.2545 40.3363 30.2545 40.6035C30.2545 40.6447 30.0109 40.9691 29.7132 41.3245C28.8065 42.4069 27.032 45.2014 27.032 45.5469C27.032 45.6154 27.1498 45.6417 27.4575 45.6417C28.6364 45.6417 29.7221 46.2866 29.73 46.9916C29.7337 47.3209 29.4737 47.9238 28.9523 48.7952C27.8284 50.6733 27.907 50.9374 29.8202 51.7113C30.8166 52.1143 31.2173 52.415 31.3886 52.8882C31.6014 53.4761 31.309 54.6166 30.8177 55.1148C30.4976 55.4393 29.9721 55.6451 29.0544 55.8054C27.6915 56.0433 27.5397 56.1497 27.3473 57.0018C27.2047 57.6335 27.0442 57.9068 26.6094 58.2577L26.2931 58.513L26.6342 59.0256C27.9573 61.0135 30.6715 62.6525 34.1301 63.5523C35.3099 63.8592 35.3368 63.8628 35.4965 63.7393ZM33.9995 41.3839C33.8318 41.2961 33.5967 41.089 33.4769 40.9238C33.2872 40.6619 33.2592 40.5409 33.2592 39.9833C33.2592 39.4488 33.2927 39.2908 33.4626 39.0239C33.7161 38.6258 34.0821 38.4157 34.522 38.4157C34.962 38.4157 35.328 38.6258 35.5815 39.0239C35.7491 39.2872 35.7849 39.4504 35.7849 39.9514C35.7849 40.4683 35.7522 40.6087 35.5666 40.8875C35.173 41.4792 34.5551 41.6749 33.9995 41.3839ZM43.6844 63.3491C44.7155 63.1799 45.7194 62.5661 46.5941 61.5701L47.0901 61.0054L46.9289 59.7245L46.7678 58.4436L46.9542 58.29C47.0568 58.2056 47.4211 58.0627 47.7638 57.9724C48.2333 57.8488 48.4062 57.7689 48.4655 57.6483C48.5738 57.4281 48.5644 56.2611 48.4505 55.7749C48.2255 54.815 47.3301 53.8805 46.3917 53.6263C44.581 53.1356 42.1786 53.8482 41.4413 55.0945C41.0814 55.7029 41.1481 56.1025 41.7862 57.1603C42.0656 57.6234 42.4129 58.0993 42.5579 58.2179C42.8205 58.4324 42.8215 58.436 42.7623 58.9925C42.7296 59.3 42.5867 60.3615 42.4446 61.3513C42.3025 62.3412 42.1863 63.1954 42.1863 63.2496C42.1863 63.4196 42.9469 63.4701 43.6844 63.3491ZM40.2219 57.0448C39.5732 55.8844 39.7907 54.8337 40.8841 53.846C41.3116 53.4598 42.3467 52.9138 43.0308 52.7137C46.0803 51.8216 48.8965 52.901 49.6861 55.2645C49.7807 55.5477 49.8821 56.1376 49.9115 56.5755C49.9715 57.4701 49.9253 57.4328 50.6728 57.1913L51.0058 57.0837L50.9584 56.2631C50.8196 53.8649 49.1226 52.1199 46.4885 51.6667C45.5866 51.5115 44.0523 51.5606 43.1879 51.7724C40.6924 52.3836 38.9547 53.8396 38.7388 55.5004C38.6818 55.9384 38.8052 56.6151 39.0165 57.0236C39.1325 57.2478 39.2014 57.2837 39.8157 57.4402C40.1855 57.5344 40.4967 57.6067 40.5074 57.601C40.5181 57.5952 40.3896 57.3449 40.2219 57.0448ZM49.2409 47.2632C50.9015 47.1844 51.3682 47.0055 51.7779 46.2905C51.9372 46.0124 51.9829 45.79 52.0111 45.1541C52.069 43.8501 51.7845 42.9444 51.0501 42.0952C50.2977 41.2251 49.4709 40.8236 47.9189 40.5745C47.137 40.449 46.7311 40.4303 44.7991 40.4303C42.8627 40.4303 42.4623 40.4488 41.6729 40.5755C40.1166 40.8251 39.3109 41.2118 38.5836 42.0579C37.8198 42.9465 37.5329 43.8292 37.5871 45.1232C37.6152 45.7933 37.6581 46.0085 37.82 46.2905C38.2274 47.0002 38.7144 47.1925 40.2702 47.2581C41.8548 47.3249 47.8692 47.3283 49.2409 47.2632ZM55.6077 41.3784C55.7704 41.2937 56.0016 41.089 56.1213 40.9238C56.311 40.6619 56.3391 40.5409 56.3391 39.9833C56.3391 39.4488 56.3055 39.2908 56.1356 39.0239C55.7609 38.4355 55.0684 38.2373 54.4935 38.5539C54.0251 38.8118 53.8133 39.247 53.8133 39.9514C53.8133 40.4716 53.8455 40.6079 54.0362 40.8945C54.2839 41.2667 54.7173 41.5326 55.0762 41.5326C55.2057 41.5326 55.4449 41.4632 55.6077 41.3784ZM60.2147 36.2098C61.1664 36.1157 62.4124 35.8103 62.3508 35.6863C62.3242 35.6325 62.3678 35.3573 62.448 35.0746C62.6675 34.3004 62.6462 32.8334 62.4056 32.1457C62.0299 31.0721 61.0333 30.0188 59.7871 29.3781C58.7233 28.8311 58.7059 28.8413 58.6882 30.0257C58.6654 31.5575 58.248 32.444 57.1086 33.3807L56.4697 33.906V34.6487V35.3915L56.7963 35.5904C57.7541 36.1738 58.751 36.3544 60.2147 36.2098ZM55.0668 35.0411C55.1372 34.9754 55.1592 34.3387 55.1428 32.835L55.1197 30.7212H44.7556H34.3914L34.367 32.7757C34.3536 33.9057 34.3642 34.8984 34.3905 34.9818L34.4383 35.1334H44.703C53.2875 35.1334 54.984 35.1183 55.0668 35.0411ZM52.9448 29.5256C53.0145 29.3804 53.3874 25.6343 53.3378 25.5762C53.2591 25.4837 52.9208 25.3661 52.7338 25.3661C52.6159 25.3661 52.4018 25.5281 52.0886 25.8544C49.9132 28.1209 46.2721 29.1232 42.7351 28.4293C41.2402 28.136 39.9216 27.5597 38.6907 26.6616C38.0196 26.172 38.1694 26.1876 36.83 26.4671C36.1659 26.6058 36.0417 26.6536 36.0171 26.7804C35.9782 26.9804 36.1675 29.4763 36.2273 29.551C36.2534 29.5838 39.9532 29.6098 44.5893 29.6098C51.1617 29.6098 52.9128 29.5921 52.9448 29.5256ZM45.8465 27.585C47.8644 27.3896 49.7611 26.5569 50.9501 25.3444C51.1746 25.1155 51.5497 24.6164 51.7837 24.2351C52.2355 23.4994 52.4339 23.3561 52.8371 23.4747C53.1561 23.5685 53.2908 23.7478 53.2908 24.0789C53.2908 24.3521 53.3193 24.3977 53.542 24.4805C53.948 24.6314 55.1935 24.6007 55.7949 24.425C56.8978 24.1027 57.736 23.342 58.0002 22.4235C58.2684 21.4912 57.9959 20.7073 57.164 20.0197C56.0537 19.1017 54.3856 18.8547 52.981 19.4003C52.2077 19.7007 52.0334 19.6448 51.4847 18.92C49.9987 16.9572 47.4632 15.907 44.4943 16.0245C43.3113 16.0713 42.736 16.188 41.6202 16.6078C40.6059 16.9893 39.7858 17.491 39.0943 18.153C38.8234 18.4122 38.5298 18.6421 38.4417 18.6637C38.3529 18.6855 37.9195 18.5925 37.4687 18.4549C35.4009 17.8239 33.5582 18.0798 32.1243 19.1971C31.1203 19.9794 30.6848 20.7885 30.68 21.8801C30.6756 22.8955 31.1267 23.7503 32.0399 24.457C33.1981 25.3535 34.94 25.7542 36.5427 25.493C37.1376 25.396 37.222 25.3374 37.222 25.0211C37.222 24.6649 37.4703 24.4757 37.9013 24.5035C38.1931 24.5223 38.2636 24.5707 38.6769 25.0364C39.3496 25.7947 40.4385 26.5606 41.3729 26.9329C42.898 27.5404 44.2584 27.7387 45.8465 27.585Z" fill="white"/>
</svg>
